<svg width="82" height="64" viewBox="0 0 82 64" fill="none" xmlns="http://www.w3.org/2000/svg">
<g clip-path="url(#clip0_676_352)">
<path d="M15.0014 15.9086L19.567 14.1238M27.4163 11.1313C26.3724 8.13776 9.22609 6.84178 8.40573 8.74975C7.47424 10.9139 12.9745 14.1128 14.3819 15.2665C15.2284 15.9604 15.3658 16.3503 15.1447 17.4601C14.1456 22.4847 13.654 24.9874 14.7839 25.5428C16.5871 26.4297 28.4347 14.0521 27.4163 11.1313Z" stroke="black" stroke-width="1.5" stroke-linecap="round" stroke-linejoin="round"/>
</g>
<path d="M52.0833 46.4612C52.0833 45.4792 52.0735 43.4952 52.052 42.5092C51.9247 36.3792 51.8601 33.3132 49.6452 31.0432C47.4303 28.7712 44.3479 28.6932 38.1811 28.5352C34.3943 28.4376 30.6057 28.4376 26.8189 28.5352C20.6521 28.6932 17.5696 28.7712 15.3548 31.0432C13.1399 33.3132 13.0753 36.3792 12.946 42.5092C12.9048 44.477 12.9048 46.4455 12.946 48.4132C13.0753 54.5432 13.1399 57.6092 15.3548 59.8792C17.5696 62.1512 20.6521 62.2292 26.8189 62.3872C28.3907 62.4272 29.9581 62.4512 31.5208 62.4592" stroke="black" stroke-width="2" stroke-linecap="round" stroke-linejoin="round"/>
<path d="M8.50002 31L26.4546 41.3112C31.4014 44.1772 33.5986 44.1772 38.5454 41.3112L56 31M36.4166 56.4612H52.0833M36.4166 56.4612C36.4166 55.0612 40.3216 52.4452 41.3125 51.4612M36.4166 56.4612C36.4166 57.8612 40.3216 60.4792 41.3125 61.4612" stroke="black" stroke-width="2" stroke-linecap="round" stroke-linejoin="round"/>
<path d="M29.1213 9.78482L29.1324 9.7959C29.1325 9.79573 29.1327 9.79556 29.1329 9.7954L29.1218 9.78435L29.1213 9.78482ZM30.3185 9.44318L30.0225 9.04019C30.0005 9.05633 29.9787 9.07252 29.9569 9.08876L29.8477 8.941C30.3946 8.53663 31.0402 8.14918 31.7556 7.77873L31.9855 8.22274C32.0289 8.20028 32.0726 8.17787 32.1165 8.15551L32.1957 8.31015C31.4907 8.67122 30.8553 9.04892 30.3185 9.44318ZM34.1891 7.39961C34.8477 7.12798 35.5359 6.86751 36.2379 6.61824L36.1805 6.4565C36.1324 6.47364 36.0844 6.49082 36.0364 6.50806L35.8673 6.03752C35.1531 6.29417 34.453 6.56236 33.7829 6.84205L33.8486 6.9996C33.8984 6.97879 33.9484 6.95805 33.9985 6.93739L34.1891 7.39961ZM38.0369 5.48529L37.9833 5.31919C38.7018 5.08766 39.4187 4.86744 40.1186 4.65858L40.2616 5.13771C40.2958 5.12751 40.3299 5.11734 40.364 5.10719L40.4147 5.27882C39.7274 5.48177 39.0231 5.69572 38.3171 5.92065L38.1653 5.44425C38.1225 5.45789 38.0797 5.47157 38.0369 5.48529ZM42.3145 4.21044L42.2641 4.03409C42.5474 3.95312 42.8244 3.87435 43.0936 3.79777C43.5589 3.6654 44.0013 3.53958 44.4139 3.42031L44.5528 3.90065C44.5622 3.89793 44.5716 3.89521 44.5809 3.8925L44.6328 4.07287C44.1978 4.19801 43.7284 4.33054 43.2328 4.47044C43.0012 4.53581 42.7639 4.6028 42.5218 4.67139L42.3855 4.19032C42.3619 4.19701 42.3382 4.20372 42.3145 4.21044ZM46.4518 3.05135L46.4095 2.86145C47.0201 2.72517 47.6538 2.62776 48.303 2.56318L48.3525 3.06073C48.3768 3.05832 48.401 3.05595 48.4253 3.05363L48.4433 3.27458C47.7941 3.3274 47.1719 3.41174 46.5884 3.53357L46.4862 3.04413C46.4747 3.04652 46.4633 3.04893 46.4518 3.05135ZM50.2206 2.70429L50.2181 2.46251C50.8519 2.45602 51.4931 2.47353 52.1353 2.50996L52.1069 3.00916C52.1393 3.011 52.1717 3.01288 52.204 3.01481L52.1892 3.26361C51.5575 3.22601 50.9303 3.2048 50.3159 3.20421L50.3164 2.70421C50.2844 2.70418 50.2525 2.70421 50.2206 2.70429ZM54.0205 2.91152L54.0467 2.66967C54.6883 2.7391 55.3246 2.82257 55.9493 2.91492L55.8762 3.40955C55.9004 3.41313 55.9246 3.41673 55.9488 3.42034L55.9176 3.64498C55.3063 3.56004 54.6834 3.48298 54.057 3.41792L54.1087 2.92059C54.0793 2.91754 54.0499 2.91451 54.0205 2.91152ZM57.8063 3.42868L57.8426 3.22424C58.496 3.34007 59.1273 3.4602 59.7279 3.57778L59.6318 4.06846C59.6382 4.06972 59.6446 4.07097 59.651 4.07223L59.6152 4.26032C59.0322 4.14936 58.4136 4.03725 57.7704 3.92962L57.853 3.43647C57.8374 3.43387 57.8219 3.43128 57.8063 3.42868ZM61.6824 4.18155L61.727 3.99817C62.431 4.16909 63.1267 4.36863 63.8122 4.59601L63.6548 5.07059C63.6553 5.07075 63.6558 5.07091 63.6563 5.07108L63.5969 5.25008C62.9291 5.02859 62.2515 4.83422 61.5656 4.66772L61.6836 4.18183C61.6832 4.18174 61.6828 4.18164 61.6824 4.18155ZM65.7676 5.53625L65.8414 5.36285C66.5069 5.64607 67.1607 5.95651 67.8009 6.29339L67.5681 6.73588C67.5688 6.73621 67.5694 6.73655 67.57 6.73688L67.4824 6.90351C66.8587 6.57536 66.2219 6.27295 65.5736 5.99706L65.7693 5.53699C65.7688 5.53674 65.7682 5.53649 65.7676 5.53625ZM69.5768 7.54001L69.6777 7.38128C70.2871 7.76868 70.8814 8.18154 71.4591 8.61907L71.1573 9.01766C71.1579 9.01817 71.1586 9.01868 71.1593 9.01918L71.0458 9.16897C70.4831 8.74277 69.9041 8.3406 69.3105 7.96323L69.5788 7.54128C69.5781 7.54086 69.5775 7.54044 69.5768 7.54001ZM73.0097 10.1395L73.1348 9.99965C73.6756 10.4836 74.1954 10.9889 74.6933 11.5139L74.3305 11.8579C74.3311 11.8585 74.3317 11.8592 74.3323 11.8598L74.1963 11.9888C73.7113 11.4774 73.2049 10.9853 72.6782 10.5138L73.0116 10.1412C73.011 10.1407 73.0103 10.1401 73.0097 10.1395ZM75.9768 13.2677L76.1228 13.1504C76.5767 13.7151 77.0074 14.2982 77.4138 14.8983L76.9999 15.1787C77.0003 15.1793 77.0008 15.18 77.0012 15.1807L76.8464 15.2856C76.4504 14.7011 76.0309 14.1331 75.5887 13.583L75.9784 13.2697C75.9779 13.2691 75.9774 13.2684 75.9768 13.2677ZM78.3952 16.8374L78.558 16.7456C78.9134 17.3756 79.2437 18.0209 79.5477 18.68L79.0937 18.8894C79.0939 18.89 79.0942 18.8907 79.0945 18.8913L78.925 18.9694C78.6288 18.3273 78.3071 17.6987 77.9609 17.0851L78.3963 16.8394C78.396 16.8387 78.3956 16.8381 78.3952 16.8374ZM80.2018 20.7541L80.377 20.69C80.6266 21.3725 80.8477 22.0638 81.0402 22.7621L80.5582 22.8949C80.5583 22.8954 80.5584 22.8958 80.5585 22.8962L80.3788 22.9458C80.1913 22.2656 79.9759 21.5922 79.7328 20.9274L80.2024 20.7557C80.2022 20.7552 80.202 20.7546 80.2018 20.7541ZM81.3493 24.916L81.5324 24.8813C81.6676 25.5941 81.7736 26.3121 81.8503 27.0335L81.3531 27.0864C81.3532 27.0866 81.3532 27.0868 81.3532 27.0869L81.168 27.1066C81.0933 26.4039 80.9899 25.7044 80.8583 25.0101L81.3495 24.917C81.3494 24.9166 81.3494 24.9163 81.3493 24.916ZM81.8059 29.2091L81.992 29.2045C82.0097 29.9286 81.998 30.6543 81.9566 31.3798L81.7706 31.3692C81.7706 31.3691 81.7706 31.369 81.7706 31.3689L81.2715 31.3404C81.3118 30.6337 81.3233 29.9268 81.306 29.2214L81.8059 29.2092C81.8059 29.2092 81.8059 29.2091 81.8059 29.2091ZM81.249 33.4757L81.7442 33.5448C81.6438 34.2643 81.5144 34.9782 81.3563 35.6847L81.1745 35.6441C81.1746 35.6437 81.1746 35.6433 81.1747 35.643L80.6868 35.5338C80.8407 34.8456 80.9668 34.1502 81.0646 33.4493L81.2491 33.475C81.249 33.4752 81.249 33.4755 81.249 33.4757ZM80.3181 37.6376L80.7955 37.7861C80.5801 38.4787 80.3366 39.1622 80.0655 39.8348L79.8924 39.765C79.8926 39.7644 79.8929 39.7639 79.8931 39.7633L79.4293 39.5764C79.6934 38.9212 79.9307 38.2555 80.1405 37.5808L80.3186 37.6362C80.3184 37.6366 80.3183 37.6371 80.3181 37.6376ZM78.7239 41.593L79.1709 41.8171C78.8463 42.4645 78.495 43.0993 78.1176 43.7199L77.9578 43.6228C77.9583 43.6221 77.9587 43.6214 77.9591 43.6208L77.5319 43.3609C77.8995 42.7564 78.2417 42.138 78.5579 41.5075L78.7248 41.5912C78.7245 41.5918 78.7242 41.5924 78.7239 41.593ZM76.5089 45.2352L76.9134 45.529C76.4872 46.116 76.0378 46.6842 75.5668 47.2324L75.4247 47.1103C75.4253 47.1097 75.4259 47.109 75.4264 47.1084L75.0472 46.7825C75.506 46.2485 75.9437 45.695 76.3589 45.1232L76.5103 45.2332C76.5098 45.2339 76.5093 45.2345 76.5089 45.2352ZM73.7343 48.4645L74.0856 48.8202C73.5704 49.3292 73.0346 49.8167 72.4797 50.2817L72.3591 50.1378C72.3597 50.1372 72.3604 50.1366 72.3611 50.1361L72.0399 49.7528C72.5805 49.2999 73.1024 48.825 73.6043 48.3292L73.7361 48.4627C73.7355 48.4633 73.7349 48.4639 73.7343 48.4645ZM70.4709 51.1987L70.7595 51.6069C70.1692 52.0243 69.5612 52.418 68.9367 52.7868L68.841 52.6248C68.8417 52.6244 68.8424 52.624 68.843 52.6236L68.5888 52.1931C69.197 51.8339 69.7893 51.4504 70.3644 51.0437L70.4729 51.1972C70.4722 51.1977 70.4715 51.1982 70.4709 51.1987ZM66.8065 53.3629L67.0247 53.8128C66.3729 54.1288 65.7096 54.4174 65.0366 54.6781L64.9685 54.5023C64.969 54.5021 64.9696 54.5019 64.9701 54.5017L64.7896 54.0354C65.4452 53.7815 66.0913 53.5004 66.7262 53.1925L66.8084 53.362C66.8078 53.3623 66.8072 53.3626 66.8065 53.3629ZM62.8425 54.898L62.9842 55.3775C62.2907 55.5825 61.5892 55.759 60.8814 55.9064L60.8429 55.7216C60.8433 55.7215 60.8436 55.7215 60.844 55.7214L60.742 55.2319C61.4315 55.0883 62.1148 54.9164 62.7903 54.7167L62.8438 54.8976C62.8434 54.8978 62.8429 54.8979 62.8425 54.898ZM58.6809 55.7648L58.7423 56.261C58.0259 56.3497 57.305 56.4092 56.5814 56.4389L56.5736 56.2502C56.5737 56.2502 56.5738 56.2502 56.5738 56.2502L56.5533 55.7506C57.2582 55.7217 57.9604 55.6638 58.6583 55.5773L58.6815 55.7647C58.6813 55.7647 58.6811 55.7648 58.6809 55.7648Z" fill="white" stroke="black" stroke-dasharray="2 2"/>
<defs>
<clipPath id="clip0_676_352">
<rect width="23.7689" height="23.7689" fill="white" transform="translate(9.53432) rotate(23.6486)"/>
</clipPath>
</defs>
</svg>
