<svg width="375" height="269" viewBox="0 0 375 269" fill="none" xmlns="http://www.w3.org/2000/svg">
<mask id="mask0_676_181" style="mask-type:alpha" maskUnits="userSpaceOnUse" x="0" y="0" width="375" height="269">
<rect width="375" height="269" fill="#D9D9D9"/>
</mask>
<g mask="url(#mask0_676_181)">
<path d="M698.888 93.4426C698.937 94.7829 698.971 96.1271 698.987 97.4751L698.487 97.4813C698.496 98.1533 698.5 98.8262 698.5 99.5C698.5 100.174 698.496 100.847 698.487 101.519L698.987 101.525C698.971 102.873 698.937 104.217 698.888 105.558L698.388 105.539C698.338 106.88 698.272 108.217 698.189 109.549L698.688 109.58C698.604 110.926 698.504 112.268 698.387 113.606L697.889 113.562C697.773 114.898 697.64 116.229 697.49 117.555L697.987 117.611C697.837 118.952 697.669 120.287 697.486 121.618L696.99 121.55C696.807 122.877 696.608 124.199 696.392 125.517L696.885 125.598C696.668 126.928 696.433 128.254 696.183 129.575L695.692 129.481C695.442 130.798 695.176 132.109 694.895 133.414L695.384 133.52C695.099 134.837 694.799 136.149 694.482 137.456L693.996 137.338C693.681 138.641 693.349 139.937 693.002 141.228L693.485 141.358C693.135 142.659 692.769 143.953 692.388 145.242L691.908 145.1C691.528 146.385 691.132 147.664 690.72 148.937L691.196 149.09C690.781 150.371 690.351 151.645 689.906 152.913L689.434 152.747C688.99 154.012 688.53 155.27 688.055 156.521L688.523 156.699C688.045 157.956 687.553 159.207 687.045 160.451L686.582 160.262C686.075 161.503 685.554 162.737 685.017 163.964L685.475 164.164C684.936 165.396 684.382 166.621 683.814 167.838L683.361 167.627C682.794 168.841 682.212 170.048 681.615 171.247L682.063 171.47C681.464 172.674 680.851 173.87 680.223 175.058L679.781 174.824C679.155 176.009 678.515 177.187 677.86 178.356L678.297 178.6C677.64 179.773 676.969 180.937 676.285 182.094L675.855 181.839C675.172 182.992 674.475 184.137 673.765 185.273L674.189 185.538C673.476 186.678 672.75 187.809 672.011 188.931L671.593 188.656C670.856 189.775 670.105 190.885 669.341 191.986L669.752 192.271C668.986 193.375 668.206 194.47 667.414 195.556L667.01 195.262C666.22 196.344 665.418 197.417 664.602 198.481L664.999 198.785C664.182 199.851 663.351 200.909 662.508 201.956L662.119 201.643C661.279 202.686 660.427 203.72 659.562 204.745L659.944 205.067C659.077 206.094 658.198 207.111 657.307 208.118L656.933 207.787C656.045 208.79 655.146 209.783 654.234 210.766L654.601 211.106C653.687 212.091 652.762 213.066 651.824 214.032L651.466 213.683C650.533 214.644 649.588 215.594 648.633 216.534L648.983 216.89C648.025 217.833 647.055 218.764 646.074 219.685L645.732 219.321C644.756 220.237 643.769 221.143 642.772 222.038L643.105 222.41C642.105 223.308 641.093 224.195 640.071 225.07L639.746 224.691C638.73 225.561 637.703 226.421 636.665 227.27L636.982 227.657C635.942 228.508 634.891 229.348 633.83 230.176L633.522 229.782C632.468 230.606 631.403 231.418 630.328 232.219L630.627 232.62C629.55 233.423 628.462 234.215 627.365 234.995L627.075 234.588C625.985 235.363 624.885 236.127 623.775 236.879L624.055 237.293C622.943 238.047 621.822 238.789 620.691 239.519L620.419 239.099C619.295 239.825 618.162 240.539 617.019 241.241L617.281 241.667C616.137 242.37 614.983 243.062 613.821 243.741L613.569 243.309C612.413 243.984 611.249 244.647 610.076 245.298L610.319 245.735C609.145 246.387 607.962 247.026 606.771 247.653L606.538 247.211C605.354 247.834 604.161 248.446 602.96 249.044L603.183 249.492C601.982 250.091 600.772 250.677 599.555 251.251L599.342 250.798C598.131 251.369 596.912 251.928 595.685 252.473L595.888 252.93C594.662 253.475 593.429 254.008 592.188 254.527L591.995 254.066C590.759 254.583 589.516 255.088 588.266 255.579L588.449 256.045C587.201 256.535 585.946 257.013 584.684 257.478L584.511 257.008C583.254 257.472 581.989 257.922 580.718 258.358L580.88 258.831C579.613 259.267 578.339 259.689 577.059 260.098L576.907 259.622C575.63 260.03 574.346 260.424 573.057 260.806L573.198 261.285C571.914 261.665 570.623 262.031 569.326 262.385L569.195 261.902C567.902 262.254 566.604 262.593 565.299 262.918L565.42 263.403C564.12 263.727 562.813 264.037 561.501 264.334L561.391 263.847C560.085 264.142 558.774 264.424 557.458 264.693L557.558 265.183C556.243 265.451 554.924 265.705 553.599 265.945L553.51 265.454C552.194 265.692 550.873 265.918 549.547 266.129L549.626 266.623C548.3 266.835 546.969 267.033 545.634 267.217L545.566 266.721C544.242 266.903 542.914 267.072 541.582 267.227L541.639 267.724C540.304 267.879 538.964 268.02 537.62 268.147L537.573 267.649C536.245 267.775 534.912 267.887 533.576 267.985L533.612 268.484C532.272 268.582 530.928 268.667 529.58 268.737L529.554 268.238C528.221 268.308 526.884 268.363 525.544 268.405L525.559 268.905C524.218 268.947 522.874 268.975 521.525 268.989L521.52 268.489C520.848 268.496 520.174 268.5 519.5 268.5C518.826 268.5 518.152 268.496 517.48 268.489L517.475 268.989C516.126 268.975 514.782 268.947 513.44 268.905L513.456 268.405C512.115 268.363 510.779 268.308 509.446 268.238L509.42 268.737C508.071 268.667 506.727 268.582 505.387 268.484L505.424 267.985C504.088 267.887 502.755 267.775 501.427 267.649L501.38 268.147C500.036 268.02 498.696 267.879 497.361 267.723L497.418 267.227C496.086 267.072 494.758 266.903 493.434 266.721L493.366 267.216C492.031 267.033 490.7 266.835 489.374 266.623L489.453 266.129C488.127 265.918 486.806 265.692 485.49 265.453L485.401 265.945C484.076 265.705 482.756 265.451 481.442 265.183L481.542 264.693C480.226 264.424 478.914 264.142 477.609 263.847L477.498 264.334C476.187 264.037 474.88 263.727 473.58 263.403L473.701 262.918C472.396 262.593 471.098 262.254 469.805 261.902L469.674 262.385C468.377 262.031 467.086 261.665 465.801 261.285L465.943 260.806C464.654 260.424 463.37 260.03 462.093 259.622L461.941 260.098C460.661 259.689 459.387 259.267 458.12 258.831L458.282 258.358C457.011 257.922 455.746 257.471 454.488 257.008L454.316 257.478C453.054 257.013 451.799 256.535 450.551 256.045L450.734 255.579C449.484 255.088 448.241 254.583 447.005 254.066L446.812 254.527C445.571 254.007 444.338 253.475 443.112 252.93L443.315 252.473C442.088 251.927 440.869 251.369 439.658 250.798L439.445 251.251C438.228 250.677 437.018 250.091 435.817 249.492L436.04 249.044C434.839 248.446 433.646 247.834 432.462 247.211L432.229 247.653C431.038 247.026 429.855 246.387 428.681 245.735L428.924 245.298C427.751 244.647 426.587 243.984 425.431 243.309L425.179 243.741C424.017 243.062 422.863 242.37 421.719 241.667L421.981 241.241C420.838 240.539 419.705 239.825 418.581 239.099L418.309 239.519C417.178 238.789 416.057 238.047 414.945 237.293L415.225 236.879C414.115 236.127 413.015 235.363 411.925 234.588L411.635 234.995C410.538 234.215 409.45 233.423 408.373 232.62L408.672 232.219C407.597 231.418 406.532 230.606 405.478 229.782L405.17 230.176C404.109 229.348 403.058 228.508 402.018 227.657L402.335 227.27C401.297 226.421 400.27 225.561 399.254 224.691L398.929 225.07C397.907 224.195 396.895 223.308 395.895 222.41L396.228 222.038C395.231 221.143 394.244 220.237 393.268 219.321L392.926 219.686C391.945 218.764 390.975 217.833 390.017 216.89L390.367 216.534C389.412 215.594 388.467 214.644 387.534 213.683L387.176 214.032C386.238 213.066 385.313 212.091 384.399 211.106L384.766 210.766C383.854 209.783 382.955 208.79 382.067 207.787L381.693 208.118C380.802 207.111 379.923 206.094 379.056 205.067L379.438 204.745C378.573 203.72 377.721 202.686 376.881 201.643L376.492 201.956C375.649 200.908 374.818 199.851 374.001 198.785L374.398 198.481C373.582 197.417 372.779 196.344 371.99 195.262L371.586 195.556C370.793 194.47 370.014 193.375 369.248 192.271L369.659 191.986C368.895 190.885 368.144 189.775 367.407 188.656L366.989 188.931C366.25 187.809 365.524 186.678 364.811 185.538L365.235 185.273C364.525 184.137 363.828 182.992 363.145 181.839L362.715 182.094C362.031 180.937 361.36 179.773 360.703 178.6L361.14 178.355C360.485 177.186 359.845 176.009 359.219 174.824L358.777 175.058C358.149 173.87 357.536 172.674 356.937 171.47L357.385 171.247C356.788 170.048 356.206 168.841 355.639 167.627L355.186 167.838C354.618 166.621 354.064 165.396 353.525 164.164L353.983 163.964C353.446 162.737 352.925 161.503 352.418 160.262L351.955 160.451C351.447 159.207 350.955 157.956 350.477 156.698L350.945 156.521C350.47 155.27 350.01 154.012 349.566 152.747L349.094 152.913C348.649 151.645 348.219 150.371 347.804 149.09L348.28 148.936C347.868 147.664 347.472 146.385 347.092 145.099L346.612 145.241C346.231 143.953 345.865 142.658 345.515 141.358L345.998 141.228C345.651 139.937 345.319 138.64 345.004 137.338L344.518 137.456C344.201 136.149 343.901 134.837 343.616 133.52L344.105 133.414C343.823 132.109 343.558 130.798 343.308 129.481L342.817 129.574C342.566 128.254 342.332 126.928 342.114 125.597L342.608 125.517C342.392 124.199 342.193 122.877 342.01 121.549L341.514 121.618C341.331 120.287 341.163 118.951 341.013 117.611L341.509 117.555C341.36 116.229 341.227 114.897 341.111 113.562L340.613 113.605C340.496 112.268 340.396 110.926 340.312 109.58L340.811 109.549C340.728 108.216 340.662 106.88 340.612 105.539L340.112 105.557C340.063 104.217 340.029 102.873 340.013 101.525L340.513 101.519C340.504 100.847 340.5 100.174 340.5 99.5C340.5 98.8261 340.504 98.1531 340.513 97.4811L340.013 97.4749C340.029 96.1269 340.063 94.7827 340.112 93.4424L340.612 93.461C340.662 92.1201 340.728 90.7833 340.811 89.4506L340.312 89.4196C340.396 88.0736 340.496 86.7318 340.613 85.3944L341.111 85.4379C341.227 84.1023 341.36 82.7712 341.51 81.4446L341.013 81.3887C341.163 80.0485 341.331 78.7129 341.514 77.3821L342.01 77.4505C342.193 76.1231 342.392 74.8006 342.608 73.4832L342.115 73.4024C342.332 72.0716 342.567 70.7458 342.817 69.4254L343.308 69.5185C343.558 68.2022 343.824 66.8911 344.105 65.5856L343.616 65.4801C343.901 64.1625 344.201 62.8505 344.518 61.5442L345.004 61.662C345.319 60.3595 345.651 59.0627 345.998 57.7719L345.515 57.642C345.865 56.3414 346.231 55.0468 346.612 53.7584L347.092 53.9004C347.472 52.6152 347.868 51.3361 348.28 50.0634L347.804 49.9095C348.219 48.6289 348.649 47.3547 349.094 46.0872L349.566 46.2529C350.01 44.9882 350.47 43.7301 350.945 42.4789L350.477 42.3015C350.955 41.0437 351.447 39.7928 351.955 38.549L352.418 38.738C352.925 37.497 353.446 36.263 353.983 35.0363L353.525 34.8359C354.064 33.6038 354.618 32.379 355.186 31.1618L355.639 31.3734C356.206 30.1589 356.788 28.952 357.385 27.7527L356.937 27.5301C357.536 26.3263 358.149 25.1303 358.777 23.9422L359.219 24.1757C359.845 22.9907 360.485 21.8135 361.14 20.6444L360.703 20.4002C361.36 19.2273 362.031 18.0626 362.715 16.9062L363.145 17.161C363.828 16.0078 364.525 14.863 365.235 13.7267L364.811 13.4616C365.524 12.322 366.25 11.191 366.989 10.0687L367.407 10.3439C368.144 9.22505 368.895 8.11496 369.659 7.01379L369.248 6.72877C370.014 5.6247 370.794 4.52959 371.586 3.44363L371.99 3.73835C372.779 2.65613 373.582 1.58302 374.398 0.519226L374.001 0.215027C374.818 -0.85141 375.649 -1.90849 376.492 -2.95604L376.881 -2.64258C377.721 -3.68612 378.573 -4.72018 379.438 -5.74454L379.056 -6.06705C379.923 -7.09388 380.802 -8.111 381.693 -9.11819L382.067 -8.78685C382.955 -9.78976 383.854 -10.7828 384.766 -11.7658L384.399 -12.1058C385.313 -13.0912 386.238 -14.0665 387.176 -15.0315L387.534 -14.6832C388.467 -15.6437 389.412 -16.5939 390.367 -17.5338L390.017 -17.8903C390.975 -18.8325 391.945 -19.7643 392.926 -20.6855L393.268 -20.321C394.244 -21.2374 395.231 -22.1432 396.228 -23.0382L395.895 -23.4104C396.895 -24.3079 397.907 -25.1946 398.929 -26.0703L399.254 -25.6906C400.27 -26.5612 401.297 -27.421 402.335 -28.2697L402.018 -28.6567C403.058 -29.5078 404.109 -30.3477 405.17 -31.1764L405.478 -30.7824C406.532 -31.606 407.597 -32.4184 408.672 -33.2194L408.373 -33.6203C409.45 -34.4234 410.538 -35.2151 411.635 -35.9952L411.925 -35.5877C413.015 -36.363 414.115 -37.1269 415.225 -37.879L414.945 -38.2929C416.057 -39.0468 417.178 -39.7889 418.309 -40.5191L418.581 -40.099C419.705 -40.8249 420.838 -41.5389 421.981 -42.241L421.719 -42.667C422.863 -43.3703 424.017 -44.0616 425.179 -44.7407L425.431 -44.309C426.587 -44.9842 427.751 -45.6474 428.924 -46.2983L428.681 -46.7355C429.855 -47.3871 431.038 -48.0264 432.229 -48.6533L432.462 -48.2109C433.646 -48.8344 434.839 -49.4456 436.04 -50.0443L435.817 -50.4917C437.018 -51.0906 438.228 -51.6769 439.445 -52.2506L439.658 -51.7984C440.869 -52.3692 442.088 -52.9275 443.315 -53.4731L443.112 -53.9299C444.338 -54.4751 445.571 -55.0075 446.812 -55.5271L447.005 -55.0659C448.241 -55.5832 449.484 -56.0878 450.734 -56.5793L450.551 -57.0447C451.799 -57.5353 453.054 -58.013 454.316 -58.4777L454.489 -58.0084C455.746 -58.4715 457.011 -58.9216 458.282 -59.3584L458.12 -59.8313C459.387 -60.2667 460.661 -60.689 461.941 -61.098L462.093 -60.6217C463.37 -61.0297 464.654 -61.4244 465.943 -61.8056L465.802 -62.2851C467.086 -62.6649 468.377 -63.0315 469.674 -63.3846L469.805 -62.9021C471.098 -63.2541 472.396 -63.5926 473.701 -63.9176L473.58 -64.4028C474.88 -64.7268 476.187 -65.0374 477.499 -65.3344L477.609 -64.8468C478.915 -65.1423 480.226 -65.4244 481.542 -65.6928L481.442 -66.1827C482.757 -66.4506 484.076 -66.7049 485.401 -66.9455L485.49 -66.4535C486.806 -66.6925 488.127 -66.9178 489.453 -67.1294L489.374 -67.6232C490.7 -67.8347 492.031 -68.0326 493.366 -68.2165L493.434 -67.7212C494.758 -67.9035 496.086 -68.0721 497.418 -68.2268L497.361 -68.7235C498.696 -68.8786 500.036 -69.0199 501.38 -69.1471L501.427 -68.6493C502.755 -68.775 504.088 -68.887 505.424 -68.9852L505.388 -69.4838C506.728 -69.5823 508.072 -69.6668 509.42 -69.7372L509.446 -69.2379C510.779 -69.3076 512.116 -69.3635 513.456 -69.4055L513.441 -69.9052C514.782 -69.9472 516.126 -69.9754 517.475 -69.9894L517.48 -69.4895C518.152 -69.4965 518.826 -69.5 519.5 -69.5C520.174 -69.5 520.848 -69.4965 521.52 -69.4895L521.525 -69.9894C522.874 -69.9754 524.218 -69.9472 525.56 -69.9052L525.544 -69.4055C526.885 -69.3635 528.221 -69.3076 529.554 -69.2379L529.58 -69.7372C530.929 -69.6667 532.273 -69.5822 533.613 -69.4838L533.576 -68.9852C534.912 -68.887 536.245 -68.775 537.573 -68.6493L537.62 -69.1471C538.964 -69.0198 540.304 -68.8786 541.639 -68.7235L541.582 -68.2268C542.914 -68.072 544.242 -67.9034 545.566 -67.7212L545.634 -68.2165C546.969 -68.0325 548.3 -67.8347 549.626 -67.6231L549.547 -67.1294C550.873 -66.9178 552.194 -66.6925 553.51 -66.4535L553.599 -66.9455C554.924 -66.7049 556.244 -66.4506 557.558 -66.1827L557.458 -65.6927C558.774 -65.4244 560.086 -65.1423 561.391 -64.8467L561.502 -65.3344C562.813 -65.0374 564.12 -64.7268 565.42 -64.4028L565.299 -63.9176C566.604 -63.5926 567.902 -63.254 569.195 -62.9021L569.326 -63.3845C570.623 -63.0314 571.914 -62.6649 573.199 -62.2851L573.057 -61.8056C574.346 -61.4243 575.63 -61.0296 576.907 -60.6217L577.059 -61.098C578.339 -60.689 579.613 -60.2667 580.88 -59.8313L580.718 -59.3584C581.989 -58.9216 583.254 -58.4715 584.512 -58.0084L584.684 -58.4776C585.946 -58.013 587.201 -57.5353 588.449 -57.0446L588.266 -56.5793C589.516 -56.0878 590.759 -55.5832 591.995 -55.0658L592.188 -55.527C593.429 -55.0075 594.662 -54.475 595.888 -53.9299L595.685 -53.473C596.912 -52.9275 598.131 -52.3692 599.342 -51.7983L599.555 -52.2506C600.772 -51.6769 601.982 -51.0905 603.183 -50.4917L602.96 -50.0442C604.161 -49.4455 605.354 -48.8344 606.538 -48.2108L606.771 -48.6533C607.962 -48.0264 609.145 -47.387 610.319 -46.7354L610.076 -46.2982C611.249 -45.6473 612.413 -44.9842 613.569 -44.309L613.821 -44.7407C614.983 -44.0616 616.137 -43.3703 617.281 -42.667L617.019 -42.241C618.162 -41.5389 619.295 -40.8249 620.419 -40.099L620.691 -40.5191C621.822 -39.7889 622.943 -39.0467 624.055 -38.2929L623.775 -37.879C624.885 -37.1269 625.985 -36.363 627.075 -35.5877L627.365 -35.9952C628.462 -35.2151 629.55 -34.4234 630.627 -33.6203L630.328 -33.2194C631.403 -32.4183 632.468 -31.6059 633.522 -30.7823L633.83 -31.1764C634.891 -30.3477 635.942 -29.5078 636.982 -28.6567L636.665 -28.2697C637.703 -27.421 638.73 -26.5612 639.746 -25.6906L640.071 -26.0703C641.093 -25.1946 642.105 -24.3079 643.105 -23.4104L642.772 -23.0382C643.769 -22.1432 644.756 -21.2374 645.732 -20.321L646.074 -20.6855C647.055 -19.7643 648.025 -18.8325 648.983 -17.8903L648.633 -17.5338C649.588 -16.5939 650.533 -15.6437 651.466 -14.6832L651.824 -15.0315C652.762 -14.0665 653.687 -13.0912 654.601 -12.1058L654.234 -11.7658C655.146 -10.7828 656.045 -9.78976 656.933 -8.78684L657.307 -9.11818C658.198 -8.11098 659.077 -7.09386 659.944 -6.06703L659.562 -5.74452C660.427 -4.72016 661.279 -3.6861 662.119 -2.64256L662.508 -2.95602C663.351 -1.90846 664.182 -0.851372 664.999 0.215065L664.602 0.519264C665.418 1.58305 666.221 2.65617 667.01 3.73839L667.414 3.44367C668.207 4.52963 668.986 5.62474 669.752 6.72881L669.341 7.01385C670.105 8.11501 670.856 9.22511 671.593 10.3439L672.011 10.0688C672.75 11.1911 673.476 12.3221 674.189 13.4617L673.765 13.7267C674.475 14.863 675.172 16.0079 675.855 17.161L676.285 16.9063C676.969 18.0627 677.64 19.2274 678.297 20.4003L677.86 20.6445C678.515 21.8136 679.155 22.9907 679.781 24.1758L680.223 23.9423C680.851 25.1304 681.464 26.3264 682.063 27.5302L681.615 27.7528C682.212 28.9521 682.794 30.159 683.361 31.3735L683.814 31.1619C684.382 32.3792 684.936 33.6039 685.475 34.836L685.017 35.0364C685.554 36.2631 686.075 37.4971 686.582 38.7381L687.045 38.5492C687.553 39.793 688.045 41.0438 688.523 42.3016L688.055 42.479C688.53 43.7303 688.99 44.9884 689.434 46.253L689.906 46.0873C690.351 47.3549 690.781 48.629 691.196 49.9097L690.72 50.0636C691.132 51.3363 691.528 52.6153 691.908 53.9005L692.388 53.7586C692.769 55.047 693.135 56.3416 693.485 57.6422L693.002 57.772C693.349 59.0629 693.681 60.3596 693.996 61.6621L694.482 61.5444C694.799 62.8507 695.099 64.1627 695.384 65.4803L694.895 65.5858C695.177 66.8913 695.442 68.2024 695.692 69.5187L696.183 69.4256C696.434 70.746 696.668 72.0718 696.885 73.4026L696.392 73.4834C696.608 74.8008 696.807 76.1233 696.99 77.4507L697.486 77.3823C697.669 78.7131 697.837 80.0487 697.987 81.3889L697.491 81.4448C697.64 82.7714 697.773 84.1025 697.889 85.4381L698.387 85.3946C698.504 86.732 698.604 88.0738 698.688 89.4198L698.189 89.4508C698.272 90.7835 698.338 92.1203 698.388 93.4612L698.888 93.4426Z" stroke="black" stroke-dasharray="4 4"/>
<path d="M752.72 170.587C752.844 171.893 752.927 173.205 752.969 174.521L752.469 174.537C752.49 175.19 752.5 175.844 752.5 176.5C752.5 177.156 752.49 177.81 752.469 178.463L752.969 178.479C752.927 179.795 752.844 181.107 752.72 182.413L752.222 182.366C752.099 183.665 751.934 184.96 751.73 186.248L752.224 186.327C752.018 187.624 751.771 188.915 751.485 190.2L750.997 190.091C750.714 191.363 750.392 192.629 750.031 193.888L750.512 194.026C750.152 195.283 749.753 196.534 749.317 197.778L748.845 197.613C748.415 198.841 747.948 200.062 747.445 201.276L747.907 201.468C747.406 202.675 746.87 203.875 746.3 205.069L745.849 204.853C745.29 206.022 744.697 207.184 744.07 208.339L744.51 208.578C743.885 209.731 743.227 210.877 742.537 212.016L742.109 211.757C741.44 212.86 740.741 213.957 740.011 215.047L740.427 215.325C739.7 216.411 738.943 217.49 738.157 218.562L737.754 218.267C736.987 219.312 736.193 220.35 735.371 221.381L735.762 221.693C734.95 222.712 734.111 223.723 733.246 224.727L732.867 224.401C732.018 225.388 731.143 226.368 730.243 227.34L730.61 227.68C729.728 228.633 728.822 229.579 727.892 230.518L727.537 230.166C726.618 231.095 725.675 232.017 724.71 232.932L725.054 233.295C724.113 234.186 723.151 235.07 722.168 235.948L721.835 235.575C720.859 236.446 719.862 237.311 718.844 238.169L719.166 238.551C718.175 239.386 717.165 240.213 716.136 241.034L715.824 240.644C714.801 241.46 713.758 242.27 712.697 243.073L712.999 243.472C711.965 244.254 710.914 245.029 709.845 245.798L709.553 245.392C708.489 246.157 707.407 246.916 706.309 247.668L706.591 248.081C705.522 248.813 704.436 249.539 703.335 250.258L703.062 249.839C701.964 250.556 700.85 251.266 699.72 251.97L699.985 252.395C698.884 253.08 697.768 253.76 696.638 254.433L696.382 254.003C695.257 254.674 694.118 255.337 692.964 255.995L693.212 256.429C692.081 257.073 690.937 257.711 689.78 258.342L689.541 257.903C688.394 258.529 687.233 259.148 686.06 259.761L686.291 260.204C685.134 260.809 683.964 261.408 682.782 262L682.558 261.553C681.392 262.137 680.215 262.714 679.026 263.285L679.242 263.736C678.059 264.304 676.865 264.866 675.659 265.422L675.45 264.967C674.27 265.511 673.078 266.049 671.876 266.581L672.079 267.038C670.874 267.571 669.659 268.097 668.433 268.617L668.238 268.157C667.043 268.664 665.839 269.165 664.624 269.66L664.813 270.123C663.598 270.617 662.374 271.106 661.139 271.589L660.957 271.123C659.741 271.599 658.515 272.068 657.28 272.532L657.456 273C656.233 273.459 655 273.912 653.759 274.359L653.59 273.889C652.353 274.335 651.107 274.774 649.852 275.208L650.016 275.68C648.786 276.105 647.548 276.524 646.301 276.937L646.144 276.463C644.9 276.875 643.647 277.282 642.386 277.682L642.538 278.159C641.29 278.555 640.035 278.946 638.772 279.33L638.626 278.852C637.378 279.232 636.121 279.606 634.858 279.975L634.998 280.455C633.732 280.824 632.46 281.187 631.18 281.544L631.045 281.063C629.793 281.412 628.533 281.756 627.267 282.094L627.395 282.577C626.128 282.915 624.854 283.247 623.573 283.574L623.449 283.089C622.179 283.413 620.901 283.732 619.617 284.044L619.736 284.53C618.467 284.838 617.192 285.141 615.911 285.439L615.798 284.951C614.518 285.248 613.232 285.539 611.941 285.824L612.048 286.313C610.771 286.595 609.487 286.871 608.197 287.142L608.095 286.653C606.815 286.921 605.53 287.184 604.239 287.441L604.337 287.932C603.045 288.189 601.747 288.441 600.443 288.687L600.351 288.195C599.07 288.437 597.784 288.673 596.492 288.903L596.58 289.396C595.289 289.626 593.993 289.851 592.692 290.07L592.609 289.577C591.312 289.795 590.01 290.007 588.703 290.214L588.781 290.708C587.492 290.912 586.198 291.11 584.899 291.303L584.825 290.809C583.528 291.001 582.226 291.188 580.919 291.369L580.988 291.865C579.686 292.045 578.38 292.22 577.069 292.389L577.005 291.894C575.71 292.061 574.41 292.222 573.107 292.378L573.166 292.875C571.861 293.031 570.552 293.182 569.239 293.327L569.184 292.83C567.88 292.973 566.573 293.112 565.261 293.244L565.311 293.742C564.01 293.873 562.704 293.999 561.394 294.12L561.349 293.622C560.041 293.742 558.729 293.857 557.413 293.966L557.454 294.464C556.147 294.573 554.835 294.675 553.52 294.773L553.483 294.274C552.179 294.37 550.871 294.461 549.56 294.546L549.593 295.045C548.28 295.131 546.964 295.21 545.645 295.284L545.617 294.785C544.308 294.859 542.996 294.927 541.681 294.989L541.705 295.488C540.397 295.55 539.085 295.607 537.771 295.658L537.751 295.158C536.438 295.209 535.122 295.254 533.803 295.294L533.818 295.793C532.506 295.833 531.192 295.866 529.874 295.895L529.864 295.395C528.555 295.423 527.244 295.445 525.93 295.462L525.937 295.962C524.621 295.979 523.303 295.99 521.983 295.996L521.981 295.496C521.321 295.499 520.661 295.5 520 295.5C519.339 295.5 518.679 295.499 518.019 295.496L518.017 295.996C516.696 295.99 515.378 295.979 514.063 295.962L514.07 295.462C512.756 295.445 511.445 295.423 510.136 295.395L510.126 295.895C508.808 295.866 507.493 295.833 506.182 295.793L506.197 295.294C504.878 295.254 503.562 295.209 502.249 295.158L502.229 295.658C500.915 295.607 499.603 295.55 498.295 295.488L498.318 294.989C497.004 294.927 495.692 294.859 494.383 294.785L494.355 295.284C493.036 295.21 491.72 295.131 490.407 295.045L490.44 294.546C489.128 294.461 487.821 294.37 486.516 294.274L486.48 294.773C485.165 294.675 483.853 294.573 482.545 294.464L482.587 293.966C481.271 293.857 479.959 293.742 478.651 293.622L478.606 294.12C477.296 293.999 475.99 293.873 474.688 293.742L474.739 293.244C473.427 293.112 472.119 292.973 470.816 292.83L470.761 293.327C469.448 293.182 468.138 293.031 466.833 292.875L466.893 292.378C465.589 292.222 464.29 292.061 462.995 291.894L462.931 292.389C461.62 292.22 460.314 292.045 459.012 291.865L459.08 291.369C457.774 291.188 456.472 291.001 455.174 290.809L455.101 291.303C453.802 291.11 452.508 290.912 451.218 290.708L451.297 290.214C449.99 290.007 448.688 289.795 447.391 289.576L447.308 290.07C446.007 289.851 444.711 289.626 443.42 289.396L443.508 288.903C442.216 288.673 440.93 288.437 439.649 288.195L439.557 288.687C438.253 288.441 436.955 288.189 435.663 287.931L435.76 287.441C434.47 287.184 433.185 286.921 431.905 286.653L431.802 287.142C430.513 286.871 429.229 286.595 427.951 286.313L428.059 285.824C426.767 285.539 425.482 285.248 424.202 284.951L424.089 285.438C422.808 285.141 421.533 284.838 420.264 284.53L420.382 284.044C419.099 283.732 417.821 283.413 416.551 283.089L416.427 283.574C415.146 283.247 413.872 282.915 412.604 282.577L412.733 282.094C411.467 281.756 410.207 281.412 408.955 281.062L408.82 281.544C407.54 281.187 406.267 280.824 405.002 280.455L405.142 279.975C403.878 279.606 402.622 279.232 401.374 278.852L401.228 279.33C399.965 278.946 398.71 278.555 397.462 278.159L397.614 277.682C396.353 277.282 395.1 276.875 393.856 276.463L393.699 276.937C392.452 276.524 391.214 276.105 389.984 275.68L390.147 275.208C388.893 274.774 387.647 274.334 386.41 273.889L386.24 274.359C384.999 273.912 383.767 273.459 382.544 273L382.72 272.532C381.485 272.068 380.259 271.599 379.043 271.123L378.861 271.589C377.626 271.106 376.402 270.617 375.187 270.123L375.376 269.659C374.161 269.165 372.956 268.664 371.762 268.157L371.567 268.617C370.341 268.097 369.126 267.571 367.921 267.038L368.124 266.581C366.921 266.049 365.73 265.511 364.55 264.967L364.34 265.422C363.135 264.866 361.941 264.304 360.758 263.736L360.974 263.285C359.785 262.714 358.608 262.137 357.442 261.553L357.218 262C356.036 261.408 354.866 260.809 353.708 260.204L353.94 259.761C352.767 259.148 351.606 258.529 350.459 257.903L350.22 258.342C349.063 257.711 347.919 257.073 346.788 256.429L347.036 255.995C345.882 255.337 344.743 254.674 343.617 254.003L343.362 254.433C342.232 253.76 341.116 253.08 340.015 252.394L340.28 251.97C339.15 251.266 338.036 250.556 336.938 249.839L336.665 250.258C335.563 249.539 334.478 248.813 333.409 248.081L333.691 247.668C332.592 246.916 331.511 246.157 330.447 245.392L330.155 245.798C329.086 245.029 328.035 244.254 327.001 243.471L327.303 243.073C326.242 242.27 325.199 241.46 324.176 240.644L323.864 241.034C322.835 240.213 321.825 239.386 320.834 238.551L321.156 238.169C320.138 237.311 319.141 236.446 318.164 235.575L317.831 235.948C316.849 235.07 315.887 234.186 314.946 233.295L315.29 232.932C314.325 232.017 313.382 231.095 312.463 230.166L312.108 230.518C311.178 229.579 310.272 228.633 309.39 227.68L309.757 227.34C308.857 226.367 307.982 225.388 307.133 224.401L306.754 224.727C305.889 223.723 305.05 222.712 304.238 221.693L304.629 221.381C303.807 220.35 303.013 219.312 302.246 218.266L301.843 218.562C301.057 217.49 300.3 216.411 299.573 215.325L299.989 215.047C299.259 213.957 298.56 212.86 297.891 211.757L297.463 212.016C296.773 210.877 296.115 209.731 295.49 208.578L295.93 208.339C295.303 207.184 294.71 206.022 294.151 204.853L293.7 205.068C293.129 203.875 292.594 202.675 292.093 201.468L292.555 201.276C292.052 200.062 291.585 198.841 291.155 197.613L290.683 197.778C290.247 196.534 289.848 195.283 289.488 194.026L289.969 193.888C289.608 192.629 289.286 191.363 289.003 190.091L288.515 190.2C288.229 188.915 287.982 187.624 287.776 186.327L288.27 186.248C288.066 184.96 287.901 183.665 287.778 182.365L287.28 182.413C287.156 181.107 287.073 179.795 287.031 178.479L287.531 178.463C287.51 177.81 287.5 177.156 287.5 176.5C287.5 175.844 287.51 175.19 287.531 174.537L287.031 174.521C287.073 173.205 287.156 171.893 287.28 170.587L287.778 170.634C287.901 169.335 288.066 168.04 288.27 166.752L287.777 166.673C287.982 165.376 288.229 164.085 288.515 162.8L289.003 162.909C289.286 161.637 289.608 160.371 289.969 159.112L289.488 158.974C289.848 157.717 290.247 156.466 290.683 155.222L291.155 155.387C291.585 154.159 292.052 152.938 292.555 151.724L292.093 151.532C292.594 150.325 293.13 149.125 293.7 147.931L294.151 148.147C294.71 146.978 295.303 145.816 295.93 144.661L295.49 144.422C296.115 143.269 296.773 142.123 297.463 140.984L297.891 141.243C298.56 140.14 299.259 139.043 299.989 137.953L299.573 137.675C300.3 136.589 301.057 135.51 301.843 134.438L302.246 134.733C303.013 133.688 303.807 132.65 304.629 131.619L304.239 131.307C305.05 130.288 305.889 129.277 306.754 128.273L307.133 128.599C307.982 127.612 308.857 126.632 309.757 125.66L309.39 125.32C310.272 124.367 311.178 123.421 312.108 122.482L312.463 122.834C313.382 121.905 314.325 120.983 315.29 120.068L314.946 119.705C315.887 118.814 316.849 117.93 317.832 117.052L318.165 117.425C319.141 116.554 320.138 115.689 321.156 114.831L320.834 114.449C321.825 113.614 322.835 112.787 323.864 111.966L324.176 112.356C325.199 111.54 326.242 110.73 327.303 109.927L327.001 109.528C328.035 108.746 329.086 107.971 330.155 107.202L330.447 107.608C331.511 106.843 332.593 106.084 333.691 105.332L333.409 104.919C334.478 104.187 335.564 103.461 336.665 102.742L336.938 103.161C338.036 102.444 339.15 101.734 340.28 101.03L340.015 100.605C341.116 99.9195 342.232 99.24 343.362 98.5669L343.618 98.9965C344.743 98.3263 345.882 97.6626 347.036 97.0054L346.788 96.571C347.919 95.927 349.063 95.2894 350.22 94.6582L350.459 95.0971C351.606 94.4713 352.767 93.8518 353.94 93.2388L353.709 92.7957C354.866 92.1908 356.036 91.5923 357.218 91.0001L357.442 91.4472C358.608 90.8634 359.785 90.2859 360.974 89.7146L360.758 89.2639C361.941 88.6958 363.135 88.1339 364.341 87.5784L364.55 88.0325C365.73 87.4886 366.922 86.9508 368.124 86.4192L367.921 85.9619C369.126 85.4293 370.341 84.9029 371.567 84.3828L371.762 84.843C372.957 84.3362 374.161 83.8353 375.376 83.3405L375.187 82.8775C376.402 82.3825 377.626 81.8937 378.861 81.4111L379.043 81.8767C380.259 81.4011 381.485 80.9315 382.72 80.468L382.544 79.9999C383.767 79.5408 385 79.0877 386.241 78.6407L386.41 79.1111C387.647 78.6655 388.893 78.2259 390.148 77.7925L389.984 77.3199C391.214 76.8949 392.452 76.4759 393.699 76.0628L393.856 76.5374C395.1 76.1249 396.353 75.7184 397.614 75.3178L397.462 74.8413C398.71 74.4449 399.965 74.0544 401.228 73.6698L401.374 74.1481C402.622 73.7679 403.879 73.3936 405.142 73.0251L405.002 72.5451C406.268 72.1761 407.54 71.813 408.82 71.4559L408.955 71.9375C410.207 71.588 411.467 71.2443 412.733 70.9063L412.605 70.4232C413.872 70.085 415.146 69.7526 416.427 69.426L416.551 69.9105C417.821 69.5866 419.099 69.2684 420.383 68.9561L420.264 68.4703C421.533 68.1616 422.808 67.8587 424.089 67.5615L424.202 68.0485C425.482 67.7518 426.768 67.4608 428.059 67.1756L427.951 66.6873C429.229 66.4052 430.513 66.1288 431.803 65.8581L431.905 66.3474C433.185 66.0789 434.47 65.816 435.761 65.5589L435.663 65.0685C436.955 64.811 438.253 64.5593 439.557 64.3134L439.649 64.8047C440.93 64.563 442.216 64.327 443.508 64.0966L443.42 63.6044C444.711 63.374 446.007 63.1494 447.308 62.9304L447.391 63.4235C448.688 63.2053 449.99 62.9928 451.297 62.786L451.219 62.2921C452.508 62.0881 453.802 61.8897 455.101 61.6969L455.175 62.1914C456.472 61.9989 457.774 61.8119 459.081 61.6307L459.012 61.1354C460.314 60.9548 461.62 60.7798 462.931 60.6105L462.995 61.1064C464.29 60.9392 465.59 60.7776 466.893 60.6215L466.834 60.1251C468.139 59.9689 469.448 59.8183 470.761 59.6734L470.816 60.1704C472.12 60.0265 473.427 59.8883 474.739 59.7557L474.689 59.2582C475.99 59.1266 477.296 59.0006 478.606 58.8802L478.651 59.3781C479.959 59.2578 481.271 59.1431 482.587 59.0341L482.545 58.5358C483.853 58.4274 485.165 58.3246 486.48 58.2274L486.516 58.7261C487.821 58.6297 489.129 58.5389 490.44 58.4536L490.407 57.9547C491.72 57.8694 493.036 57.7896 494.355 57.7156L494.383 58.2148C495.692 58.1413 497.004 58.0734 498.319 58.0111L498.295 57.5116C499.603 57.4497 500.915 57.3932 502.229 57.3424L502.249 57.842C503.562 57.7912 504.878 57.746 506.197 57.7064L506.182 57.2067C507.494 57.1673 508.808 57.1335 510.126 57.1054L510.136 57.6053C511.445 57.5773 512.756 57.5548 514.07 57.538L514.063 57.038C515.379 57.0212 516.697 57.0099 518.017 57.0042L518.019 57.5042C518.679 57.5014 519.339 57.5 520 57.5C520.661 57.5 521.321 57.5014 521.981 57.5042L521.983 57.0042C523.304 57.0099 524.622 57.0212 525.937 57.038L525.93 57.538C527.244 57.5548 528.555 57.5773 529.864 57.6053L529.874 57.1054C531.192 57.1335 532.506 57.1673 533.818 57.2067L533.803 57.7064C535.122 57.746 536.438 57.7912 537.751 57.842L537.771 57.3424C539.085 57.3932 540.397 57.4497 541.705 57.5117L541.682 58.0111C542.996 58.0734 544.308 58.1413 545.617 58.2148L545.645 57.7156C546.964 57.7896 548.28 57.8694 549.593 57.9547L549.56 58.4537C550.872 58.5389 552.179 58.6297 553.484 58.7261L553.52 58.2275C554.835 58.3246 556.147 58.4274 557.455 58.5358L557.413 59.0341C558.729 59.1431 560.041 59.2578 561.349 59.3781L561.394 58.8802C562.704 59.0006 564.01 59.1267 565.312 59.2582L565.261 59.7557C566.573 59.8883 567.881 60.0265 569.184 60.1704L569.239 59.6734C570.552 59.8183 571.862 59.9689 573.167 60.1251L573.107 60.6215C574.411 60.7776 575.71 60.9392 577.005 61.1064L577.069 60.6105C578.38 60.7798 579.686 60.9548 580.988 61.1354L580.92 61.6307C582.226 61.8119 583.528 61.9989 584.826 62.1914L584.899 61.6969C586.198 61.8897 587.492 62.0881 588.782 62.2922L588.703 62.786C590.01 62.9928 591.312 63.2053 592.609 63.4235L592.692 62.9304C593.993 63.1494 595.289 63.3741 596.58 63.6044L596.492 64.0966C597.784 64.327 599.07 64.5631 600.351 64.8047L600.443 64.3134C601.747 64.5593 603.045 64.8111 604.337 65.0685L604.24 65.5589C605.53 65.816 606.815 66.0789 608.095 66.3475L608.198 65.8581C609.487 66.1288 610.771 66.4052 612.049 66.6873L611.941 67.1756C613.233 67.4608 614.518 67.7518 615.798 68.0486L615.911 67.5615C617.192 67.8587 618.467 68.1616 619.736 68.4703L619.618 68.9561C620.901 69.2684 622.179 69.5866 623.449 69.9105L623.573 69.426C624.854 69.7526 626.128 70.085 627.396 70.4232L627.267 70.9063C628.533 71.2443 629.793 71.588 631.045 71.9375L631.18 71.4559C632.46 71.813 633.732 72.1761 634.998 72.5452L634.858 73.0252C636.122 73.3936 637.378 73.768 638.626 74.1481L638.772 73.6698C640.035 74.0544 641.29 74.4449 642.538 74.8413L642.386 75.3178C643.647 75.7184 644.9 76.1249 646.144 76.5374L646.301 76.0628C647.548 76.4759 648.786 76.895 650.016 77.3199L649.853 77.7925C651.107 78.226 652.353 78.6655 653.59 79.1111L653.759 78.6407C655.001 79.0877 656.233 79.5408 657.456 79.9999L657.28 80.468C658.515 80.9315 659.741 81.4012 660.957 81.8768L661.139 81.4111C662.374 81.8938 663.598 82.3826 664.813 82.8775L664.624 83.3405C665.839 83.8353 667.044 84.3362 668.238 84.8431L668.433 84.3828C669.659 84.9029 670.874 85.4293 672.079 85.962L671.876 86.4193C673.079 86.9509 674.27 87.4887 675.45 88.0326L675.66 87.5784C676.865 88.134 678.059 88.6959 679.242 89.264L679.026 89.7147C680.215 90.2859 681.392 90.8635 682.558 91.4472L682.782 91.0002C683.964 91.5923 685.134 92.1909 686.292 92.7957L686.06 93.2389C687.233 93.8519 688.394 94.4714 689.541 95.0972L689.78 94.6582C690.937 95.2894 692.081 95.927 693.212 96.571L692.964 97.0055C694.118 97.6626 695.257 98.3264 696.383 98.9966L696.638 98.567C697.768 99.24 698.884 99.9196 699.985 100.606L699.72 101.03C700.85 101.734 701.964 102.444 703.062 103.161L703.335 102.742C704.436 103.461 705.522 104.187 706.591 104.919L706.309 105.332C707.408 106.084 708.489 106.843 709.553 107.608L709.845 107.202C710.914 107.971 711.965 108.746 712.999 109.529L712.697 109.927C713.758 110.73 714.801 111.54 715.824 112.356L716.136 111.966C717.165 112.787 718.175 113.614 719.166 114.449L718.844 114.831C719.862 115.689 720.859 116.554 721.836 117.425L722.169 117.052C723.151 117.93 724.113 118.814 725.054 119.705L724.71 120.068C725.675 120.983 726.618 121.905 727.537 122.834L727.892 122.482C728.822 123.421 729.728 124.367 730.61 125.32L730.243 125.66C731.143 126.633 732.018 127.612 732.867 128.599L733.246 128.273C734.111 129.277 734.95 130.288 735.762 131.307L735.371 131.619C736.193 132.65 736.987 133.688 737.754 134.734L738.157 134.438C738.943 135.51 739.7 136.589 740.427 137.675L740.011 137.953C740.741 139.043 741.44 140.14 742.109 141.243L742.537 140.984C743.227 142.123 743.885 143.269 744.51 144.422L744.07 144.661C744.697 145.816 745.29 146.978 745.849 148.147L746.3 147.932C746.871 149.125 747.406 150.325 747.907 151.532L747.445 151.724C747.948 152.938 748.415 154.159 748.845 155.387L749.317 155.222C749.753 156.466 750.152 157.717 750.512 158.974L750.031 159.112C750.392 160.371 750.714 161.637 750.997 162.909L751.485 162.8C751.771 164.085 752.018 165.376 752.224 166.673L751.73 166.752C751.934 168.04 752.099 169.335 752.222 170.635L752.72 170.587Z" stroke="black" stroke-dasharray="4 4"/>
<path d="M373 184.5C357.667 172.333 326 150 272.5 150C195.421 150 75 215 0 269" stroke="#333333" stroke-linecap="round" stroke-dasharray="4 4"/>
</g>
</svg>
