<svg width="115" height="115" viewBox="0 0 115 115" fill="none" xmlns="http://www.w3.org/2000/svg">
<path d="M66 51C59.5 51 63.799 53 58 53C52.201 53 55.5 52.5 49 51C49 45.201 51.701 43 57.5 43C63.299 43 66 45.201 66 51Z" fill="#7BAE1D"/>
<path d="M43 67C53.7059 67 46.6252 65 56.1765 65C65.7277 65 60.2941 65.5 71 67C71 72.799 66.5513 75 57 75C47.4487 75 43 72.799 43 67Z" fill="#7BAE1D"/>
<path d="M19.1667 38.3334V28.7501C19.1667 26.2084 20.1763 23.7709 21.9736 21.9736C23.7708 20.1764 26.2083 19.1667 28.75 19.1667H38.3333M19.1667 76.6668V86.2501C19.1667 88.7917 20.1763 91.2293 21.9736 93.0265C23.7708 94.8237 26.2083 95.8334 28.75 95.8334H38.3333M76.6667 19.1667H86.25C88.7917 19.1667 91.2292 20.1764 93.0264 21.9736C94.8237 23.7709 95.8333 26.2084 95.8333 28.7501V38.3334M76.6667 95.8334H86.25C88.7917 95.8334 91.2292 94.8237 93.0264 93.0265C94.8237 91.2293 95.8333 88.7917 95.8333 86.2501V76.6668M38.3333 76.6668C38.3333 74.1251 39.343 71.6875 41.1402 69.8903C42.9375 68.0931 45.375 67.0834 47.9167 67.0834H67.0833C69.625 67.0834 72.0626 68.0931 73.8598 69.8903C75.657 71.6875 76.6667 74.1251 76.6667 76.6668M47.9167 43.1251C47.9167 45.6667 48.9263 48.1043 50.7236 49.9015C52.5208 51.6987 54.9583 52.7084 57.5 52.7084C60.0417 52.7084 62.4792 51.6987 64.2764 49.9015C66.0737 48.1043 67.0833 45.6667 67.0833 43.1251C67.0833 40.5834 66.0737 38.1459 64.2764 36.3486C62.4792 34.5514 60.0417 33.5417 57.5 33.5417C54.9583 33.5417 52.5208 34.5514 50.7236 36.3486C48.9263 38.1459 47.9167 40.5834 47.9167 43.1251Z" stroke="black" stroke-width="4" stroke-linecap="round" stroke-linejoin="round"/>
<rect width="34" height="34" transform="translate(79 76)" fill="white"/>
<path d="M93.5109 99.1116L87.5 93.0993L89.5032 91.0961L93.5109 95.1025L101.524 87.0884L103.528 89.093L93.5109 99.1116Z" fill="#7BAE1D"/>
<path fill-rule="evenodd" clip-rule="evenodd" d="M80.4167 93.0001C80.4167 84.3938 87.3937 77.4167 96 77.4167C104.606 77.4167 111.583 84.3938 111.583 93.0001C111.583 101.606 104.606 108.583 96 108.583C87.3937 108.583 80.4167 101.606 80.4167 93.0001ZM96 105.75C94.3256 105.75 92.6677 105.42 91.1208 104.78C89.5739 104.139 88.1683 103.2 86.9844 102.016C85.8004 100.832 84.8613 99.4262 84.2205 97.8793C83.5798 96.3324 83.25 94.6744 83.25 93.0001C83.25 91.3257 83.5798 89.6678 84.2205 88.1209C84.8613 86.574 85.8004 85.1684 86.9844 83.9845C88.1683 82.8005 89.5739 81.8614 91.1208 81.2206C92.6677 80.5799 94.3256 80.2501 96 80.2501C99.3815 80.2501 102.625 81.5934 105.016 83.9845C107.407 86.3756 108.75 89.6186 108.75 93.0001C108.75 96.3816 107.407 99.6246 105.016 102.016C102.625 104.407 99.3815 105.75 96 105.75Z" fill="#7BAE1D"/>
</svg>
