<svg width="66" height="19" viewBox="0 0 66 19" fill="none" xmlns="http://www.w3.org/2000/svg">
<path d="M14.608 4.824C12.976 3.896 11.232 3.344 9.376 3.168V18H7V3.168C5.128 3.344 3.376 3.896 1.744 4.824L0.904 2.928C3.048 1.648 5.464 1.008 8.152 1.008C10.872 1.008 13.304 1.648 15.448 2.928L14.608 4.824ZM49.4699 18.144C48.2379 18.144 47.2859 17.808 46.6139 17.136C45.9419 16.448 45.6059 15.488 45.6059 14.256V0.191999H47.9099V14.064C47.9099 14.752 48.0699 15.28 48.3899 15.648C48.7259 16.016 49.2219 16.2 49.8779 16.2C50.2779 16.2 50.6539 16.12 51.0059 15.96L51.1259 17.856C50.5979 18.048 50.0459 18.144 49.4699 18.144ZM65.0824 5.28V18H62.8744V15.984C62.3624 16.688 61.7144 17.224 60.9304 17.592C60.1464 17.96 59.2824 18.144 58.3384 18.144C57.1064 18.144 56.0024 17.872 55.0264 17.328C54.0504 16.784 53.2824 16.024 52.7224 15.048C52.1784 14.056 51.9064 12.92 51.9064 11.64C51.9064 10.36 52.1784 9.232 52.7224 8.256C53.2824 7.28 54.0504 6.52 55.0264 5.976C56.0024 5.432 57.1064 5.16 58.3384 5.16C59.2504 5.16 60.0904 5.336 60.8584 5.688C61.6264 6.024 62.2664 6.528 62.7784 7.2V5.28H65.0824ZM58.5304 16.128C59.3304 16.128 60.0584 15.944 60.7144 15.576C61.3704 15.192 61.8824 14.664 62.2504 13.992C62.6184 13.304 62.8024 12.52 62.8024 11.64C62.8024 10.76 62.6184 9.984 62.2504 9.312C61.8824 8.624 61.3704 8.096 60.7144 7.728C60.0584 7.36 59.3304 7.176 58.5304 7.176C57.7144 7.176 56.9784 7.36 56.3224 7.728C55.6824 8.096 55.1704 8.624 54.7864 9.312C54.4184 9.984 54.2344 10.76 54.2344 11.64C54.2344 12.52 54.4184 13.304 54.7864 13.992C55.1704 14.664 55.6824 15.192 56.3224 15.576C56.9784 15.944 57.7144 16.128 58.5304 16.128Z" fill="black"/>
<path d="M21.9513 16.128C23.4713 16.128 24.6953 15.616 25.6233 14.592L26.8713 16.08C26.3113 16.752 25.5993 17.264 24.7353 17.616C23.8873 17.968 22.9353 18.144 21.8793 18.144C20.5353 18.144 19.3433 17.872 18.3033 17.328C17.2633 16.768 16.4553 15.992 15.8793 15C15.3193 14.008 15.0393 12.888 15.0393 11.64C15.0393 10.408 15.3113 9.296 15.8553 8.304C16.4153 7.312 17.1753 6.544 18.1353 6C19.1113 5.44 20.2073 5.16 21.4233 5.16C22.5753 5.16 23.6233 5.424 24.5673 5.952C25.5113 6.464 26.2633 7.192 26.8233 8.136C27.3833 9.08 27.6713 10.168 27.6873 11.4L17.5833 13.368C17.9033 14.248 18.4393 14.928 19.1913 15.408C19.9593 15.888 20.8793 16.128 21.9513 16.128ZM21.4233 7.104C20.6233 7.104 19.9033 7.288 19.2633 7.656C18.6393 8.024 18.1513 8.544 17.7993 9.216C17.4473 9.872 17.2713 10.64 17.2713 11.52V11.76L25.4073 10.224C25.1993 9.296 24.7353 8.544 24.0153 7.968C23.2953 7.392 22.4313 7.104 21.4233 7.104ZM36.6466 16.128C38.1666 16.128 39.3906 15.616 40.3186 14.592L41.5666 16.08C41.0066 16.752 40.2946 17.264 39.4306 17.616C38.5826 17.968 37.6306 18.144 36.5746 18.144C35.2306 18.144 34.0386 17.872 32.9986 17.328C31.9586 16.768 31.1506 15.992 30.5746 15C30.0146 14.008 29.7346 12.888 29.7346 11.64C29.7346 10.408 30.0066 9.296 30.5506 8.304C31.1106 7.312 31.8706 6.544 32.8306 6C33.8066 5.44 34.9026 5.16 36.1186 5.16C37.2706 5.16 38.3186 5.424 39.2626 5.952C40.2066 6.464 40.9586 7.192 41.5186 8.136C42.0786 9.08 42.3666 10.168 42.3826 11.4L32.2786 13.368C32.5986 14.248 33.1346 14.928 33.8866 15.408C34.6546 15.888 35.5746 16.128 36.6466 16.128ZM36.1186 7.104C35.3186 7.104 34.5986 7.288 33.9586 7.656C33.3346 8.024 32.8466 8.544 32.4946 9.216C32.1426 9.872 31.9666 10.64 31.9666 11.52V11.76L40.1026 10.224C39.8946 9.296 39.4306 8.544 38.7106 7.968C37.9906 7.392 37.1266 7.104 36.1186 7.104Z" fill="#F25D5D"/>
</svg>
