<svg width="359" height="22" viewBox="0 0 359 22" fill="none" xmlns="http://www.w3.org/2000/svg">
<mask id="mask0_3143_642" style="mask-type:alpha" maskUnits="userSpaceOnUse" x="0" y="0" width="359" height="22">
<path d="M354.5 0H358.5L339.5 21H335L354.5 0Z" fill="#333333"/>
<path d="M315.5 0H319.5L300.5 21H296L315.5 0Z" fill="#333333"/>
<path d="M157.5 0H161.5L142.5 21H138L157.5 0Z" fill="#333333"/>
<path d="M236.5 0H240.5L221.5 21H217L236.5 0Z" fill="#333333"/>
<path d="M78.5 0H82.5L63.5 21H59L78.5 0Z" fill="#333333"/>
<path d="M275.5 0H279.5L260.5 21H256L275.5 0Z" fill="#333333"/>
<path d="M117.5 0H121.5L102.5 21H98L117.5 0Z" fill="#333333"/>
<path d="M196.5 0H200.5L181.5 21H177L196.5 0Z" fill="#333333"/>
<path d="M38.5 0H42.5L23.5 21H19L38.5 0Z" fill="#333333"/>
<path d="M320 0H316L335 21H339.5L320 0Z" fill="#333333"/>
<path d="M162 0H158L177 21H181.5L162 0Z" fill="#333333"/>
<path d="M241 0H237L256 21H260.5L241 0Z" fill="#333333"/>
<path d="M83 0H79L98 21H102.5L83 0Z" fill="#333333"/>
<path d="M281 0H277L296 21H300.5L281 0Z" fill="#333333"/>
<path d="M123 0H119L138 21H142.5L123 0Z" fill="#333333"/>
<path d="M202 0H198L217 21H221.5L202 0Z" fill="#333333"/>
<path d="M44 0H40L59 21H63.5L44 0Z" fill="#333333"/>
<path d="M4 0H0L19 21H23.5L4 0Z" fill="#333333"/>
<path d="M346.915 0H351L339.5 12.0958L335 12L346.915 0Z" fill="#333333"/>
<path d="M188.915 0H193L181.5 12.0958L177 12L188.915 0Z" fill="#333333"/>
<path d="M267.915 0H272L260.5 12.0958L256 12L267.915 0Z" fill="#333333"/>
<path d="M109.915 0H114L102.5 12.0958L98 12L109.915 0Z" fill="#333333"/>
<path d="M307.915 0H312L300.5 12.0958L296 12L307.915 0Z" fill="#333333"/>
<path d="M149.915 0H154L142.5 12.0958L138 12L149.915 0Z" fill="#333333"/>
<path d="M228.915 0H233L221.5 12.0958L217 12L228.915 0Z" fill="#333333"/>
<path d="M70.9149 0H75.0001L63.5 12.0958L59 12L70.9149 0Z" fill="#333333"/>
<path d="M30.9149 0H35.0001L23.5 12.0958L19 12L30.9149 0Z" fill="#333333"/>
<path d="M315.915 9H320L308.5 21.0958L304 21L315.915 9Z" fill="#333333"/>
<path d="M157.915 9H162L150.5 21.0958L146 21L157.915 9Z" fill="#333333"/>
<path d="M275.915 9H280L268.5 21.0958L264 21L275.915 9Z" fill="#333333"/>
<path d="M117.915 9H122L110.5 21.0958L106 21L117.915 9Z" fill="#333333"/>
<path d="M236.915 9H241L229.5 21.0958L225 21L236.915 9Z" fill="#333333"/>
<path d="M78.9149 9H83.0001L71.5 21.0958L67 21L78.9149 9Z" fill="#333333"/>
<path d="M196.915 9H201L189.5 21.0958L185 21L196.915 9Z" fill="#333333"/>
<path d="M38.9149 9H43.0001L31.5 21.0958L27 21L38.9149 9Z" fill="#333333"/>
<path d="M327.085 0H323L334.5 12.0958L339 12L327.085 0Z" fill="#333333"/>
<path d="M169.085 0H165L176.5 12.0958L181 12L169.085 0Z" fill="#333333"/>
<path d="M248.085 0H244L255.5 12.0958L260 12L248.085 0Z" fill="#333333"/>
<path d="M90.0851 0H85.9999L97.5 12.0958L102 12L90.0851 0Z" fill="#333333"/>
<path d="M288.085 0H284L295.5 12.0958L300 12L288.085 0Z" fill="#333333"/>
<path d="M130.085 0H126L137.5 12.0958L142 12L130.085 0Z" fill="#333333"/>
<path d="M209.085 0H205L216.5 12.0958L221 12L209.085 0Z" fill="#333333"/>
<path d="M51.0851 0H46.9999L58.5 12.0958L63 12L51.0851 0Z" fill="#333333"/>
<path d="M11.0851 0H6.99994L18.5 12.0958L23 12L11.0851 0Z" fill="#333333"/>
<path d="M320.085 9H316L327.5 21.0958L332 21L320.085 9Z" fill="#333333"/>
<path d="M162.085 9H158L169.5 21.0958L174 21L162.085 9Z" fill="#333333"/>
<path d="M280.085 9H276L287.5 21.0958L292 21L280.085 9Z" fill="#333333"/>
<path d="M122.085 9H118L129.5 21.0958L134 21L122.085 9Z" fill="#333333"/>
<path d="M241.085 9H237L248.5 21.0958L253 21L241.085 9Z" fill="#333333"/>
<path d="M83.0851 9H78.9999L90.5 21.0958L95 21L83.0851 9Z" fill="#333333"/>
<path d="M201.085 9H197L208.5 21.0958L213 21L201.085 9Z" fill="#333333"/>
<path d="M43.0851 9H38.9999L50.5 21.0958L55 21L43.0851 9Z" fill="#333333"/>
</mask>
<g mask="url(#mask0_3143_642)">
<rect x="7" y="3" width="350" height="16" fill="white"/>
</g>
</svg>
