<svg width="408" height="392" viewBox="0 0 408 392" fill="none" xmlns="http://www.w3.org/2000/svg">
<path d="M407.888 163.443C407.937 164.783 407.971 166.127 407.987 167.475L406.988 167.488C406.996 168.157 407 168.828 407 169.5C407 170.172 406.996 170.843 406.988 171.513L407.987 171.525C407.971 172.873 407.937 174.217 407.888 175.558L406.888 175.52C406.838 176.857 406.772 178.19 406.69 179.518L407.688 179.58C407.604 180.926 407.504 182.268 407.387 183.606L406.391 183.519C406.275 184.85 406.142 186.177 405.994 187.499L406.987 187.611C406.837 188.952 406.669 190.287 406.486 191.618L405.495 191.481C405.312 192.804 405.114 194.123 404.899 195.436L405.885 195.598C405.668 196.928 405.433 198.254 405.183 199.575L404.201 199.388C403.952 200.701 403.687 202.007 403.406 203.309L404.384 203.52C404.099 204.837 403.799 206.15 403.482 207.456L402.51 207.22C402.196 208.519 401.865 209.811 401.519 211.098L402.485 211.358C402.135 212.659 401.769 213.953 401.388 215.242L400.429 214.958C400.05 216.239 399.655 217.514 399.244 218.783L400.196 219.09C399.781 220.371 399.351 221.645 398.906 222.913L397.963 222.581C397.52 223.842 397.061 225.096 396.588 226.344L397.523 226.699C397.045 227.956 396.553 229.207 396.045 230.451L395.119 230.073C394.614 231.31 394.094 232.54 393.559 233.763L394.475 234.164C393.936 235.396 393.382 236.621 392.814 237.838L391.908 237.415C391.342 238.626 390.762 239.829 390.167 241.025L391.063 241.47C390.464 242.674 389.851 243.87 389.223 245.058L388.339 244.591C387.715 245.772 387.077 246.946 386.424 248.111L387.297 248.6C386.64 249.773 385.969 250.937 385.285 252.094L384.424 251.584C383.744 252.734 383.049 253.875 382.341 255.008L383.189 255.538C382.476 256.678 381.75 257.809 381.011 258.931L380.176 258.381C379.441 259.496 378.692 260.603 377.93 261.701L378.752 262.271C377.986 263.375 377.206 264.47 376.414 265.556L375.606 264.967C374.819 266.046 374.019 267.116 373.205 268.177L373.999 268.785C373.182 269.851 372.351 270.908 371.508 271.956L370.729 271.329C369.892 272.37 369.042 273.401 368.18 274.422L368.944 275.067C368.077 276.094 367.198 277.111 366.307 278.118L365.558 277.456C364.673 278.456 363.776 279.446 362.867 280.426L363.601 281.106C362.687 282.091 361.762 283.066 360.824 284.032L360.107 283.335C359.177 284.293 358.235 285.24 357.282 286.177L357.983 286.89C357.025 287.833 356.055 288.764 355.074 289.685L354.39 288.957C353.417 289.87 352.433 290.773 351.438 291.666L352.105 292.41C351.105 293.308 350.093 294.195 349.071 295.07L348.421 294.311C347.407 295.179 346.383 296.036 345.349 296.883L345.982 297.657C344.942 298.508 343.891 299.348 342.83 300.176L342.214 299.388C341.163 300.21 340.101 301.02 339.03 301.818L339.627 302.62C338.55 303.423 337.462 304.215 336.365 304.995L335.786 304.18C334.698 304.953 333.601 305.715 332.494 306.465L333.055 307.293C331.943 308.047 330.822 308.789 329.691 309.519L329.148 308.679C328.027 309.403 326.897 310.115 325.758 310.815L326.281 311.667C325.137 312.37 323.983 313.062 322.821 313.741L322.317 312.877C321.164 313.551 320.003 314.212 318.834 314.861L319.319 315.735C318.145 316.387 316.962 317.026 315.771 317.653L315.305 316.768C314.124 317.39 312.934 318 311.737 318.597L312.183 319.492C310.982 320.091 309.772 320.677 308.555 321.251L308.129 320.346C306.921 320.915 305.705 321.472 304.482 322.016L304.888 322.93C303.662 323.475 302.429 324.008 301.188 324.527L300.802 323.605C299.569 324.121 298.33 324.624 297.083 325.114L297.449 326.045C296.201 326.535 294.946 327.013 293.684 327.478L293.339 326.539C292.084 327.001 290.823 327.45 289.555 327.886L289.88 328.831C288.613 329.267 287.339 329.689 286.059 330.098L285.754 329.145C284.481 329.552 283.201 329.946 281.915 330.326L282.198 331.285C280.914 331.665 279.623 332.031 278.326 332.385L278.063 331.42C276.774 331.771 275.479 332.108 274.178 332.432L274.42 333.403C273.12 333.727 271.813 334.037 270.501 334.334L270.281 333.359C268.979 333.654 267.671 333.935 266.358 334.203L266.558 335.183C265.243 335.451 263.924 335.705 262.599 335.945L262.42 334.962C261.108 335.2 259.791 335.425 258.468 335.636L258.626 336.623C257.3 336.835 255.969 337.033 254.634 337.217L254.497 336.226C253.178 336.408 251.853 336.576 250.524 336.73L250.639 337.724C249.304 337.879 247.964 338.02 246.62 338.147L246.526 337.152C245.201 337.277 243.872 337.389 242.539 337.487L242.612 338.484C241.272 338.582 239.928 338.667 238.58 338.737L238.528 337.739C237.199 337.808 235.865 337.864 234.528 337.906L234.559 338.905C233.218 338.947 231.873 338.975 230.525 338.989L230.515 337.99C229.844 337.996 229.172 338 228.5 338C227.827 338 227.156 337.996 226.485 337.989L226.475 338.989C225.126 338.975 223.782 338.947 222.44 338.905L222.472 337.906C221.135 337.864 219.801 337.808 218.472 337.739L218.42 338.737C217.071 338.667 215.727 338.582 214.387 338.484L214.461 337.487C213.128 337.389 211.799 337.277 210.474 337.152L210.38 338.147C209.036 338.02 207.696 337.879 206.361 337.723L206.476 336.73C205.147 336.576 203.822 336.408 202.502 336.226L202.366 337.216C201.031 337.033 199.7 336.835 198.374 336.623L198.532 335.636C197.209 335.425 195.892 335.2 194.579 334.962L194.401 335.945C193.076 335.705 191.756 335.451 190.442 335.183L190.642 334.203C189.329 333.935 188.021 333.654 186.719 333.359L186.498 334.334C185.187 334.037 183.88 333.727 182.58 333.403L182.822 332.432C181.521 332.108 180.225 331.771 178.936 331.42L178.674 332.385C177.377 332.031 176.086 331.665 174.801 331.285L175.085 330.326C173.799 329.946 172.519 329.552 171.246 329.145L170.941 330.098C169.661 329.689 168.387 329.267 167.12 328.831L167.445 327.886C166.177 327.45 164.916 327.001 163.661 326.539L163.316 327.478C162.054 327.013 160.799 326.535 159.551 326.045L159.917 325.114C158.67 324.624 157.431 324.121 156.198 323.605L155.812 324.527C154.571 324.007 153.338 323.475 152.112 322.93L152.518 322.016C151.295 321.472 150.079 320.915 148.871 320.346L148.445 321.251C147.228 320.677 146.018 320.091 144.817 319.492L145.263 318.597C144.066 318 142.876 317.39 141.695 316.768L141.229 317.653C140.038 317.026 138.855 316.387 137.681 315.735L138.166 314.861C136.997 314.212 135.836 313.551 134.683 312.877L134.179 313.741C133.017 313.062 131.863 312.37 130.719 311.667L131.242 310.815C130.103 310.115 128.973 309.403 127.852 308.679L127.309 309.519C126.178 308.789 125.057 308.047 123.945 307.293L124.506 306.465C123.399 305.715 122.302 304.953 121.214 304.18L120.635 304.995C119.538 304.215 118.45 303.423 117.373 302.62L117.97 301.818C116.899 301.02 115.837 300.21 114.786 299.388L114.17 300.176C113.109 299.348 112.058 298.508 111.018 297.657L111.651 296.883C110.617 296.036 109.593 295.179 108.579 294.311L107.929 295.07C106.907 294.195 105.895 293.308 104.895 292.41L105.562 291.666C104.567 290.773 103.583 289.87 102.61 288.957L101.926 289.686C100.945 288.764 99.9752 287.833 99.0169 286.89L99.718 286.177C98.7649 285.24 97.8232 284.293 96.8931 283.335L96.1757 284.032C95.2385 283.066 94.3129 282.091 93.3993 281.106L94.1326 280.426C93.2238 279.446 92.3268 278.456 91.4419 277.456L90.693 278.118C89.8017 277.111 88.9226 276.094 88.0559 275.067L88.82 274.422C87.9579 273.401 87.1081 272.37 86.2708 271.329L85.4917 271.956C84.6488 270.908 83.8184 269.851 83.0009 268.785L83.7945 268.177C82.9814 267.116 82.181 266.046 81.3937 264.967L80.5859 265.556C79.7935 264.47 79.0141 263.375 78.2481 262.271L79.0697 261.701C78.3079 260.603 77.5593 259.496 76.8242 258.381L75.9892 258.931C75.2496 257.809 74.5235 256.678 73.8112 255.538L74.6591 255.008C73.9509 253.875 73.2564 252.734 72.5757 251.584L71.7152 252.094C71.0306 250.937 70.3599 249.773 69.7033 248.6L70.5759 248.111C69.9234 246.946 69.285 245.772 68.6609 244.591L67.7767 245.058C67.1491 243.87 66.5359 242.674 65.9372 241.47L66.8325 241.025C66.2379 239.829 65.6577 238.626 65.0922 237.415L64.1861 237.838C63.6176 236.621 63.0637 235.396 62.5248 234.164L63.4409 233.763C62.906 232.54 62.3859 231.31 61.8808 230.073L60.955 230.451C60.4472 229.207 59.9545 227.956 59.4771 226.698L60.4121 226.344C59.9386 225.096 59.4803 223.842 59.0373 222.581L58.0939 222.913C57.6485 221.645 57.2186 220.371 56.8043 219.09L57.7558 218.783C57.3453 217.514 56.9503 216.239 56.5709 214.958L55.6121 215.241C55.2306 213.953 54.8648 212.658 54.515 211.358L55.4807 211.098C55.1345 209.811 54.8041 208.519 54.4895 207.22L53.5176 207.456C53.2012 206.149 52.9007 204.837 52.6164 203.52L53.5939 203.309C53.3131 202.007 53.0482 200.7 52.7994 199.388L51.8169 199.574C51.5665 198.254 51.3323 196.928 51.1145 195.597L52.1014 195.436C51.8864 194.123 51.6876 192.804 51.505 191.481L50.5143 191.618C50.3307 190.287 50.1634 188.951 50.0126 187.611L51.0064 187.499C50.8576 186.177 50.7251 184.85 50.6089 183.518L49.6127 183.605C49.496 182.268 49.3958 180.926 49.3122 179.58L50.3102 179.518C50.2277 178.19 50.1615 176.857 50.1118 175.52L49.1125 175.557C49.0626 174.217 49.0293 172.873 49.0125 171.525L50.0125 171.512C50.0042 170.843 50 170.172 50 169.5C50 168.828 50.0042 168.157 50.0125 167.487L49.0125 167.475C49.0293 166.127 49.0626 164.783 49.1125 163.442L50.1118 163.48C50.1615 162.143 50.2277 160.81 50.3103 159.482L49.3122 159.42C49.3958 158.074 49.496 156.732 49.6127 155.394L50.6089 155.481C50.7251 154.15 50.8576 152.823 51.0064 151.501L50.0126 151.389C50.1634 150.048 50.3307 148.713 50.5144 147.382L51.505 147.519C51.6876 146.196 51.8865 144.877 52.1014 143.564L51.1145 143.402C51.3323 142.072 51.5665 140.746 51.8169 139.425L52.7994 139.612C53.0482 138.299 53.3132 136.993 53.594 135.691L52.6165 135.48C52.9008 134.163 53.2012 132.851 53.5177 131.544L54.4896 131.78C54.8041 130.481 55.1346 129.189 55.4807 127.902L54.515 127.642C54.8649 126.341 55.2307 125.047 55.6121 123.758L56.571 124.042C56.9504 122.761 57.3454 121.486 57.7558 120.217L56.8044 119.91C57.2187 118.629 57.6486 117.355 58.0939 116.087L59.0374 116.419C59.4803 115.158 59.9387 113.904 60.4121 112.656L59.4772 112.301C59.9546 111.044 60.4473 109.793 60.9551 108.549L61.8809 108.927C62.386 107.69 62.9061 106.46 63.441 105.237L62.5248 104.836C63.0637 103.604 63.6176 102.379 64.1862 101.162L65.0922 101.585C65.6578 100.374 66.2379 99.171 66.8326 97.9754L65.9372 97.5301C66.5359 96.3263 67.1492 95.1303 67.7768 93.9422L68.661 94.4093C69.2851 93.2278 69.9235 92.0542 70.5759 90.8886L69.7033 90.4002C70.3599 89.2273 71.0306 88.0626 71.7152 86.9062L72.5757 87.4157C73.2564 86.266 73.951 85.1246 74.6592 83.9917L73.8112 83.4616C74.5236 82.322 75.2497 81.191 75.9893 80.0687L76.8243 80.619C77.5594 79.5035 78.3079 78.3967 79.0697 77.2988L78.2481 76.7288C79.0142 75.6247 79.7935 74.5296 80.5859 73.4436L81.3937 74.0331C82.1811 72.954 82.9814 71.8841 83.7945 70.8234L83.0009 70.215C83.8184 69.1486 84.6488 68.0915 85.4917 67.044L86.2708 67.6709C87.1081 66.6304 87.9579 65.5994 88.8201 64.578L88.0559 63.933C88.9226 62.9061 89.8017 61.889 90.693 60.8818L91.4419 61.5445C92.3268 60.5445 93.2238 59.5543 94.1326 58.5741L93.3993 57.8942C94.3129 56.9088 95.2385 55.9335 96.1757 54.9685L96.8931 55.6652C97.8232 54.7075 98.7649 53.7599 99.718 52.8228L99.0169 52.1097C99.9752 51.1675 100.945 50.2357 101.926 49.3145L102.61 50.0434C103.583 49.1297 104.567 48.2265 105.562 47.334L104.895 46.5896C105.895 45.6921 106.907 44.8054 107.929 43.9297L108.579 44.6891C109.593 43.8209 110.617 42.9636 111.651 42.1173L111.018 41.3433C112.058 40.4922 113.109 39.6523 114.17 38.8236L114.786 39.6117C115.837 38.7904 116.899 37.9803 117.97 37.1815L117.373 36.3797C118.45 35.5766 119.538 34.7849 120.635 34.0048L121.214 34.8198C122.302 34.0466 123.399 33.2849 124.506 32.5348L123.945 31.7071C125.057 30.9532 126.178 30.2111 127.309 29.4809L127.852 30.321C128.973 29.5972 130.103 28.8851 131.242 28.185L130.719 27.333C131.863 26.6297 133.017 25.9384 134.179 25.2593L134.683 26.1227C135.836 25.4493 136.997 24.788 138.166 24.1389L137.681 23.2645C138.855 22.6129 140.038 21.9736 141.229 21.3467L141.695 22.2316C142.876 21.6098 144.066 21.0003 145.263 20.4032L144.817 19.5083C146.018 18.9094 147.228 18.3231 148.445 17.7494L148.871 18.6539C150.079 18.0846 151.295 17.5278 152.518 16.9838L152.112 16.0701C153.338 15.5249 154.571 14.9925 155.812 14.4729L156.198 15.3953C157.431 14.8794 158.67 14.3762 159.917 13.886L159.551 12.9553C160.799 12.4647 162.054 11.987 163.316 11.5223L163.661 12.4608C164.916 11.9989 166.177 11.5501 167.445 11.1144L167.12 10.1687C168.387 9.7333 169.661 9.311 170.941 8.90197L171.246 9.85454C172.519 9.44772 173.799 9.05409 175.085 8.67383L174.802 7.71487C176.086 7.33507 177.377 6.96853 178.674 6.61543L178.937 7.5803C180.226 7.2293 181.521 6.89165 182.822 6.56752L182.58 5.59718C183.88 5.27316 185.187 4.96257 186.499 4.66558L186.719 5.6409C188.021 5.34612 189.329 5.06482 190.642 4.79715L190.442 3.8173C191.757 3.54939 193.076 3.29508 194.401 3.05451L194.58 4.03842C195.892 3.80011 197.209 3.57535 198.532 3.36433L198.374 2.37682C199.7 2.16527 201.031 1.96744 202.366 1.78349L202.503 2.77414C203.822 2.59235 205.147 2.42419 206.476 2.26982L206.361 1.27649C207.696 1.1214 209.036 0.98015 210.38 0.852906L210.474 1.84846C211.799 1.72308 213.128 1.61136 214.461 1.51347L214.388 0.516156C215.728 0.41775 217.072 0.333237 218.42 0.262771L218.472 1.26141C219.801 1.19191 221.135 1.13615 222.472 1.09427L222.441 0.094757C223.782 0.0527534 225.127 0.0246404 226.475 0.0105655L226.485 1.01051C227.156 1.00351 227.828 1 228.5 1C229.173 1 229.844 1.00351 230.515 1.01051L230.525 0.010568C231.874 0.0246446 233.218 0.0527592 234.56 0.0947642L234.528 1.09427C235.865 1.13616 237.199 1.19192 238.528 1.26142L238.58 0.262783C239.929 0.33325 241.273 0.417764 242.613 0.516172L242.539 1.51349C243.872 1.61138 245.201 1.72309 246.526 1.84847L246.62 0.852924C247.964 0.980168 249.304 1.12142 250.639 1.27652L250.524 2.26984C251.853 2.42421 253.178 2.59237 254.498 2.77416L254.634 1.78352C255.969 1.96746 257.3 2.16529 258.626 2.37685L258.468 3.36436C259.791 3.57538 261.108 3.80014 262.421 4.03845L262.599 3.05455C263.924 3.29511 265.244 3.54943 266.558 3.81733L266.358 4.79718C267.671 5.06485 268.979 5.34616 270.281 5.64093L270.502 4.66561C271.813 4.9626 273.12 5.27319 274.42 5.59722L274.178 6.56755C275.479 6.89169 276.775 7.22934 278.064 7.58034L278.326 6.61547C279.623 6.96857 280.914 7.33511 282.199 7.71491L281.915 8.67387C283.201 9.05413 284.481 9.44776 285.754 9.85458L286.059 8.90201C287.339 9.31104 288.613 9.73334 289.88 10.1687L289.555 11.1145C290.823 11.5501 292.084 11.999 293.339 12.4608L293.684 11.5224C294.946 11.987 296.201 12.4647 297.449 12.9554L297.083 13.886C298.33 14.3762 299.569 14.8794 300.802 15.3954L301.188 14.473C302.429 14.9925 303.662 15.525 304.888 16.0701L304.482 16.9838C305.705 17.5279 306.921 18.0847 308.129 18.654L308.555 17.7494C309.772 18.3231 310.982 18.9095 312.183 19.5083L311.737 20.4033C312.934 21.0003 314.124 21.6098 315.305 22.2316L315.771 21.3467C316.962 21.9736 318.145 22.613 319.319 23.2646L318.834 24.1389C320.003 24.788 321.164 25.4494 322.317 26.1227L322.821 25.2593C323.983 25.9384 325.137 26.6297 326.281 27.333L325.758 28.185C326.897 28.8851 328.027 29.5972 329.148 30.321L329.691 29.4809C330.822 30.2111 331.943 30.9533 333.055 31.7071L332.494 32.5349C333.601 33.2849 334.698 34.0466 335.786 34.8198L336.365 34.0048C337.462 34.7849 338.55 35.5766 339.627 36.3797L339.03 37.1815C340.101 37.9803 341.163 38.7904 342.214 39.6117L342.83 38.8236C343.891 39.6523 344.942 40.4922 345.982 41.3433L345.349 42.1173C346.383 42.9636 347.407 43.8209 348.421 44.6891L349.071 43.9297C350.093 44.8054 351.105 45.6921 352.105 46.5896L351.438 47.334C352.433 48.2265 353.417 49.1297 354.39 50.0434L355.074 49.3145C356.055 50.2357 357.025 51.1675 357.983 52.1097L357.282 52.8227C358.235 53.7599 359.177 54.7075 360.107 55.6652L360.824 54.9685C361.762 55.9335 362.687 56.9088 363.601 57.8942L362.867 58.5741C363.776 59.5543 364.673 60.5445 365.558 61.5445L366.307 60.8818C367.198 61.889 368.077 62.9061 368.944 63.933L368.18 64.578C369.042 65.5994 369.892 66.6304 370.729 67.6709L371.508 67.044C372.351 68.0915 373.182 69.1486 373.999 70.2151L373.206 70.8235C374.019 71.8841 374.819 72.9541 375.606 74.0331L376.414 73.4437C377.207 74.5296 377.986 75.6247 378.752 76.7288L377.93 77.2989C378.692 78.3968 379.441 79.5036 380.176 80.619L381.011 80.0688C381.75 81.1911 382.476 82.3221 383.189 83.4617L382.341 83.9918C383.049 85.1247 383.744 86.2661 384.424 87.4158L385.285 86.9063C385.969 88.0627 386.64 89.2274 387.297 90.4003L386.424 90.8887C387.077 92.0543 387.715 93.2279 388.339 94.4094L389.223 93.9423C389.851 95.1304 390.464 96.3264 391.063 97.5302L390.167 97.9755C390.762 99.1711 391.342 100.374 391.908 101.585L392.814 101.162C393.382 102.379 393.936 103.604 394.475 104.836L393.559 105.237C394.094 106.46 394.614 107.69 395.119 108.927L396.045 108.549C396.553 109.793 397.045 111.044 397.523 112.302L396.588 112.656C397.061 113.904 397.52 115.158 397.963 116.419L398.906 116.087C399.351 117.355 399.781 118.629 400.196 119.91L399.244 120.217C399.655 121.486 400.05 122.761 400.429 124.042L401.388 123.759C401.769 125.047 402.135 126.342 402.485 127.642L401.519 127.902C401.865 129.189 402.196 130.481 402.51 131.78L403.482 131.544C403.799 132.851 404.099 134.163 404.384 135.48L403.406 135.691C403.687 136.993 403.952 138.3 404.201 139.612L405.183 139.426C405.434 140.746 405.668 142.072 405.885 143.403L404.899 143.564C405.114 144.877 405.312 146.196 405.495 147.519L406.486 147.382C406.669 148.713 406.837 150.049 406.987 151.389L405.994 151.501C406.142 152.823 406.275 154.15 406.391 155.482L407.387 155.395C407.504 156.732 407.604 158.074 407.688 159.42L406.69 159.482C406.772 160.81 406.838 162.143 406.888 163.48L407.888 163.443Z" stroke="black" stroke-width="2" stroke-dasharray="4 4"/>
<path d="M358.888 216.443C358.937 217.783 358.971 219.127 358.987 220.475L357.988 220.488C357.996 221.157 358 221.828 358 222.5C358 223.172 357.996 223.843 357.988 224.513L358.987 224.525C358.971 225.873 358.937 227.217 358.888 228.558L357.888 228.52C357.838 229.857 357.772 231.19 357.69 232.518L358.688 232.58C358.604 233.926 358.504 235.268 358.387 236.606L357.391 236.519C357.275 237.85 357.142 239.177 356.994 240.499L357.987 240.611C357.837 241.952 357.669 243.287 357.486 244.618L356.495 244.481C356.312 245.804 356.114 247.123 355.899 248.436L356.885 248.598C356.668 249.928 356.433 251.254 356.183 252.575L355.201 252.388C354.952 253.701 354.687 255.007 354.406 256.309L355.384 256.52C355.099 257.837 354.799 259.15 354.482 260.456L353.51 260.22C353.196 261.519 352.865 262.811 352.519 264.098L353.485 264.358C353.135 265.659 352.769 266.953 352.388 268.242L351.429 267.958C351.05 269.239 350.655 270.514 350.244 271.783L351.196 272.09C350.781 273.371 350.351 274.645 349.906 275.913L348.963 275.581C348.52 276.842 348.061 278.096 347.588 279.344L348.523 279.699C348.045 280.956 347.553 282.207 347.045 283.451L346.119 283.073C345.614 284.31 345.094 285.54 344.559 286.763L345.475 287.164C344.936 288.396 344.382 289.621 343.814 290.838L342.908 290.415C342.342 291.626 341.762 292.829 341.167 294.025L342.063 294.47C341.464 295.674 340.851 296.87 340.223 298.058L339.339 297.591C338.715 298.772 338.077 299.946 337.424 301.111L338.297 301.6C337.64 302.773 336.969 303.937 336.285 305.094L335.424 304.584C334.744 305.734 334.049 306.875 333.341 308.008L334.189 308.538C333.476 309.678 332.75 310.809 332.011 311.931L331.176 311.381C330.441 312.496 329.692 313.603 328.93 314.701L329.752 315.271C328.986 316.375 328.206 317.47 327.414 318.556L326.606 317.967C325.819 319.046 325.019 320.116 324.205 321.177L324.999 321.785C324.182 322.851 323.351 323.908 322.508 324.956L321.729 324.329C320.892 325.37 320.042 326.401 319.18 327.422L319.944 328.067C319.077 329.094 318.198 330.111 317.307 331.118L316.558 330.456C315.673 331.456 314.776 332.446 313.867 333.426L314.601 334.106C313.687 335.091 312.762 336.066 311.824 337.032L311.107 336.335C310.177 337.293 309.235 338.24 308.282 339.177L308.983 339.89C308.025 340.833 307.055 341.764 306.074 342.685L305.39 341.957C304.417 342.87 303.433 343.773 302.438 344.666L303.105 345.41C302.105 346.308 301.093 347.195 300.071 348.07L299.421 347.311C298.407 348.179 297.383 349.036 296.349 349.883L296.982 350.657C295.942 351.508 294.891 352.348 293.83 353.176L293.214 352.388C292.163 353.21 291.101 354.02 290.03 354.818L290.627 355.62C289.55 356.423 288.462 357.215 287.365 357.995L286.786 357.18C285.698 357.953 284.601 358.715 283.494 359.465L284.055 360.293C282.943 361.047 281.822 361.789 280.691 362.519L280.148 361.679C279.027 362.403 277.897 363.115 276.758 363.815L277.281 364.667C276.137 365.37 274.983 366.062 273.821 366.741L273.317 365.877C272.164 366.551 271.003 367.212 269.834 367.861L270.319 368.735C269.145 369.387 267.962 370.026 266.771 370.653L266.305 369.768C265.124 370.39 263.934 371 262.737 371.597L263.183 372.492C261.982 373.091 260.772 373.677 259.555 374.251L259.129 373.346C257.921 373.915 256.705 374.472 255.482 375.016L255.888 375.93C254.662 376.475 253.429 377.008 252.188 377.527L251.802 376.605C250.569 377.121 249.33 377.624 248.083 378.114L248.449 379.045C247.201 379.535 245.946 380.013 244.684 380.478L244.339 379.539C243.084 380.001 241.823 380.45 240.555 380.886L240.88 381.831C239.613 382.267 238.339 382.689 237.059 383.098L236.754 382.145C235.481 382.552 234.201 382.946 232.915 383.326L233.198 384.285C231.914 384.665 230.623 385.031 229.326 385.385L229.063 384.42C227.774 384.771 226.479 385.108 225.178 385.432L225.42 386.403C224.12 386.727 222.813 387.037 221.501 387.334L221.281 386.359C219.979 386.654 218.671 386.935 217.358 387.203L217.558 388.183C216.243 388.451 214.924 388.705 213.599 388.945L213.42 387.962C212.108 388.2 210.791 388.425 209.468 388.636L209.626 389.623C208.3 389.835 206.969 390.033 205.634 390.217L205.497 389.226C204.178 389.408 202.853 389.576 201.524 389.73L201.639 390.724C200.304 390.879 198.964 391.02 197.62 391.147L197.526 390.152C196.201 390.277 194.872 390.389 193.539 390.487L193.612 391.484C192.272 391.582 190.928 391.667 189.58 391.737L189.528 390.739C188.199 390.808 186.865 390.864 185.528 390.906L185.559 391.905C184.218 391.947 182.873 391.975 181.525 391.989L181.515 390.99C180.844 390.996 180.172 391 179.5 391C178.827 391 178.156 390.996 177.485 390.989L177.475 391.989C176.126 391.975 174.782 391.947 173.44 391.905L173.472 390.906C172.135 390.864 170.801 390.808 169.472 390.739L169.42 391.737C168.071 391.667 166.727 391.582 165.387 391.484L165.461 390.487C164.128 390.389 162.799 390.277 161.474 390.152L161.38 391.147C160.036 391.02 158.696 390.879 157.361 390.723L157.476 389.73C156.147 389.576 154.822 389.408 153.502 389.226L153.366 390.216C152.031 390.033 150.7 389.835 149.374 389.623L149.532 388.636C148.209 388.425 146.892 388.2 145.579 387.962L145.401 388.945C144.076 388.705 142.756 388.451 141.442 388.183L141.642 387.203C140.329 386.935 139.021 386.654 137.719 386.359L137.498 387.334C136.187 387.037 134.88 386.727 133.58 386.403L133.822 385.432C132.521 385.108 131.225 384.771 129.936 384.42L129.674 385.385C128.377 385.031 127.086 384.665 125.801 384.285L126.085 383.326C124.799 382.946 123.519 382.552 122.246 382.145L121.941 383.098C120.661 382.689 119.387 382.267 118.12 381.831L118.445 380.886C117.177 380.45 115.916 380.001 114.661 379.539L114.316 380.478C113.054 380.013 111.799 379.535 110.551 379.045L110.917 378.114C109.67 377.624 108.431 377.121 107.198 376.605L106.812 377.527C105.571 377.007 104.338 376.475 103.112 375.93L103.518 375.016C102.295 374.472 101.079 373.915 99.8712 373.346L99.4448 374.251C98.2276 373.677 97.0183 373.091 95.817 372.492L96.2632 371.597C95.0656 371 93.876 370.39 92.6947 369.768L92.2289 370.653C91.0379 370.026 89.8553 369.387 88.6812 368.735L89.1664 367.861C87.9968 367.212 86.8357 366.551 85.6834 365.877L85.1789 366.741C84.0166 366.062 82.8632 365.37 81.7188 364.667L82.2424 363.815C81.1031 363.115 79.9729 362.403 78.8518 361.679L78.3094 362.519C77.1784 361.789 76.0567 361.047 74.9446 360.293L75.5056 359.465C74.399 358.715 73.3019 357.953 72.2144 357.18L71.6349 357.995C70.5377 357.215 69.4503 356.423 68.3728 355.62L68.9704 354.818C67.8988 354.02 66.8371 353.21 65.7856 352.388L65.17 353.176C64.109 352.348 63.0583 351.508 62.018 350.657L62.6512 349.883C61.6168 349.036 60.5928 348.179 59.5794 347.311L58.9288 348.07C57.9066 347.195 56.8951 346.308 55.8946 345.41L56.5623 344.666C55.5673 343.773 54.5833 342.87 53.6103 341.957L52.9257 342.686C51.9448 341.764 50.9752 340.833 50.0169 339.89L50.718 339.177C49.7649 338.24 48.8232 337.293 47.8931 336.335L47.1757 337.032C46.2385 336.066 45.3129 335.091 44.3993 334.106L45.1326 333.426C44.2238 332.446 43.3268 331.456 42.4419 330.456L41.693 331.118C40.8017 330.111 39.9226 329.094 39.0559 328.067L39.82 327.422C38.9579 326.401 38.1081 325.37 37.2708 324.329L36.4917 324.956C35.6488 323.908 34.8184 322.851 34.0009 321.785L34.7945 321.177C33.9814 320.116 33.181 319.046 32.3937 317.967L31.5859 318.556C30.7935 317.47 30.0141 316.375 29.2481 315.271L30.0697 314.701C29.3079 313.603 28.5593 312.496 27.8242 311.381L26.9892 311.931C26.2496 310.809 25.5235 309.678 24.8112 308.538L25.6591 308.008C24.9509 306.875 24.2564 305.734 23.5757 304.584L22.7152 305.094C22.0306 303.937 21.3599 302.773 20.7033 301.6L21.5759 301.111C20.9234 299.946 20.285 298.772 19.6609 297.591L18.7767 298.058C18.1491 296.87 17.5359 295.674 16.9372 294.47L17.8325 294.025C17.2379 292.829 16.6577 291.626 16.0922 290.415L15.1861 290.838C14.6176 289.621 14.0637 288.396 13.5248 287.164L14.4409 286.763C13.906 285.54 13.3859 284.31 12.8808 283.073L11.955 283.451C11.4472 282.207 10.9545 280.956 10.4771 279.698L11.4121 279.344C10.9386 278.096 10.4803 276.842 10.0373 275.581L9.09387 275.913C8.64853 274.645 8.2186 273.371 7.80431 272.09L8.75576 271.783C8.34532 270.514 7.95031 269.239 7.57095 267.958L6.6121 268.241C6.23061 266.953 5.86484 265.658 5.515 264.358L6.48067 264.098C6.13454 262.811 5.80409 261.519 5.48953 260.22L4.51765 260.456C4.20119 259.149 3.90071 257.837 3.61643 256.52L4.59393 256.309C4.31312 255.007 4.0482 253.7 3.79937 252.388L2.81688 252.574C2.56649 251.254 2.33229 249.928 2.11449 248.597L3.10136 248.436C2.88643 247.123 2.68756 245.804 2.50496 244.481L1.51434 244.618C1.33069 243.287 1.16339 241.951 1.01262 240.611L2.00636 240.499C1.8576 239.177 1.72505 237.85 1.6089 236.518L0.612681 236.605C0.496004 235.268 0.395769 233.926 0.312167 232.58L1.31024 232.518C1.22773 231.19 1.16152 229.857 1.11179 228.52L0.112486 228.557C0.0626311 227.217 0.0292557 225.873 0.0125448 224.525L1.01247 224.512C1.00416 223.843 1 223.172 1 222.5C1 221.828 1.00416 221.157 1.01247 220.487L0.0125477 220.475C0.0292606 219.127 0.0626378 217.783 0.112494 216.442L1.1118 216.48C1.16153 215.143 1.22774 213.81 1.31026 212.482L0.312182 212.42C0.395784 211.074 0.496021 209.732 0.612699 208.394L1.60892 208.481C1.72507 207.15 1.85762 205.823 2.00638 204.501L1.01265 204.389C1.16341 203.048 1.33072 201.713 1.51437 200.382L2.50498 200.519C2.68759 199.196 2.88646 197.877 3.10139 196.564L2.11452 196.402C2.33233 195.072 2.56652 193.746 2.81691 192.425L3.79941 192.612C4.04824 191.299 4.31316 189.993 4.59397 188.691L3.61647 188.48C3.90076 187.163 4.20123 185.851 4.51769 184.544L5.48958 184.78C5.80414 183.481 6.13458 182.189 6.48072 180.902L5.51504 180.642C5.86489 179.341 6.23066 178.047 6.61214 176.758L7.57099 177.042C7.95036 175.761 8.34536 174.486 8.75581 173.217L7.80436 172.91C8.21865 171.629 8.64858 170.355 9.09392 169.087L10.0374 169.419C10.4803 168.158 10.9387 166.904 11.4121 165.656L10.4772 165.301C10.9546 164.044 11.4473 162.793 11.9551 161.549L12.8809 161.927C13.386 160.69 13.9061 159.46 14.441 158.237L13.5248 157.836C14.0637 156.604 14.6176 155.379 15.1862 154.162L16.0922 154.585C16.6578 153.374 17.2379 152.171 17.8326 150.975L16.9372 150.53C17.5359 149.326 18.1492 148.13 18.7768 146.942L19.661 147.409C20.2851 146.228 20.9235 145.054 21.5759 143.889L20.7033 143.4C21.3599 142.227 22.0306 141.063 22.7152 139.906L23.5757 140.416C24.2564 139.266 24.951 138.125 25.6592 136.992L24.8112 136.462C25.5236 135.322 26.2497 134.191 26.9893 133.069L27.8243 133.619C28.5594 132.504 29.3079 131.397 30.0697 130.299L29.2481 129.729C30.0142 128.625 30.7935 127.53 31.5859 126.444L32.3937 127.033C33.1811 125.954 33.9814 124.884 34.7945 123.823L34.0009 123.215C34.8184 122.149 35.6488 121.092 36.4917 120.044L37.2708 120.671C38.1081 119.63 38.9579 118.599 39.8201 117.578L39.0559 116.933C39.9226 115.906 40.8017 114.889 41.693 113.882L42.4419 114.544C43.3268 113.544 44.2238 112.554 45.1326 111.574L44.3993 110.894C45.3129 109.909 46.2385 108.934 47.1757 107.968L47.8931 108.665C48.8232 107.707 49.7649 106.76 50.718 105.823L50.0169 105.11C50.9752 104.167 51.9448 103.236 52.9257 102.315L53.6103 103.043C54.5833 102.13 55.5673 101.226 56.5623 100.334L55.8946 99.5896C56.8951 98.6921 57.9066 97.8054 58.9288 96.9297L59.5794 97.6891C60.5928 96.8209 61.6168 95.9636 62.6512 95.1173L62.018 94.3433C63.0583 93.4922 64.109 92.6523 65.17 91.8236L65.7856 92.6117C66.8371 91.7904 67.8988 90.9803 68.9704 90.1815L68.3728 89.3797C69.4503 88.5766 70.5377 87.7849 71.6349 87.0048L72.2144 87.8198C73.3019 87.0466 74.399 86.2849 75.5057 85.5348L74.9446 84.7071C76.0568 83.9532 77.1784 83.2111 78.3094 82.4809L78.8518 83.321C79.9729 82.5972 81.1032 81.8851 82.2425 81.185L81.7189 80.333C82.8633 79.6297 84.0167 78.9384 85.1789 78.2593L85.6834 79.1227C86.8358 78.4493 87.9969 77.788 89.1665 77.1389L88.6812 76.2645C89.8553 75.6129 91.038 74.9736 92.229 74.3467L92.6948 75.2316C93.8761 74.6098 95.0656 74.0003 96.2633 73.4032L95.8171 72.5083C97.0184 71.9094 98.2277 71.3231 99.4449 70.7494L99.8713 71.6539C101.079 71.0846 102.295 70.5278 103.518 69.9838L103.112 69.0701C104.338 68.5249 105.571 67.9925 106.812 67.4729L107.198 68.3953C108.431 67.8794 109.67 67.3762 110.917 66.886L110.551 65.9553C111.799 65.4647 113.054 64.987 114.316 64.5223L114.661 65.4608C115.916 64.9989 117.177 64.5501 118.445 64.1144L118.12 63.1687C119.387 62.7333 120.661 62.311 121.941 61.902L122.246 62.8545C123.519 62.4477 124.799 62.0541 126.085 61.6738L125.802 60.7149C127.086 60.3351 128.377 59.9685 129.674 59.6154L129.937 60.5803C131.226 60.2293 132.521 59.8917 133.822 59.5675L133.58 58.5972C134.88 58.2732 136.187 57.9626 137.499 57.6656L137.719 58.6409C139.021 58.3461 140.329 58.0648 141.642 57.7971L141.442 56.8173C142.757 56.5494 144.076 56.2951 145.401 56.0545L145.58 57.0384C146.892 56.8001 148.209 56.5754 149.532 56.3643L149.374 55.3768C150.7 55.1653 152.031 54.9674 153.366 54.7835L153.503 55.7741C154.822 55.5923 156.147 55.4242 157.476 55.2698L157.361 54.2765C158.696 54.1214 160.036 53.9801 161.38 53.8529L161.474 54.8485C162.799 54.7231 164.128 54.6114 165.461 54.5135L165.388 53.5162C166.728 53.4177 168.072 53.3332 169.42 53.2628L169.472 54.2614C170.801 54.1919 172.135 54.1361 173.472 54.0943L173.441 53.0948C174.782 53.0528 176.127 53.0246 177.475 53.0106L177.485 54.0105C178.156 54.0035 178.828 54 179.5 54C180.173 54 180.844 54.0035 181.515 54.0105L181.525 53.0106C182.874 53.0246 184.218 53.0528 185.56 53.0948L185.528 54.0943C186.865 54.1362 188.199 54.1919 189.528 54.2614L189.58 53.2628C190.929 53.3333 192.273 53.4178 193.613 53.5162L193.539 54.5135C194.872 54.6114 196.201 54.7231 197.526 54.8485L197.62 53.8529C198.964 53.9802 200.304 54.1214 201.639 54.2765L201.524 55.2698C202.853 55.4242 204.178 55.5924 205.498 55.7742L205.634 54.7835C206.969 54.9675 208.3 55.1653 209.626 55.3769L209.468 56.3644C210.791 56.5754 212.108 56.8001 213.421 57.0385L213.599 56.0545C214.924 56.2951 216.244 56.5494 217.558 56.8173L217.358 57.7972C218.671 58.0648 219.979 58.3462 221.281 58.6409L221.502 57.6656C222.813 57.9626 224.12 58.2732 225.42 58.5972L225.178 59.5676C226.479 59.8917 227.775 60.2293 229.064 60.5803L229.326 59.6155C230.623 59.9686 231.914 60.3351 233.199 60.7149L232.915 61.6739C234.201 62.0541 235.481 62.4478 236.754 62.8546L237.059 61.902C238.339 62.311 239.613 62.7333 240.88 63.1687L240.555 64.1145C241.823 64.5501 243.084 64.999 244.339 65.4608L244.684 64.5224C245.946 64.987 247.201 65.4647 248.449 65.9554L248.083 66.886C249.33 67.3762 250.569 67.8794 251.802 68.3954L252.188 67.473C253.429 67.9925 254.662 68.525 255.888 69.0701L255.482 69.9838C256.705 70.5279 257.921 71.0847 259.129 71.654L259.555 70.7494C260.772 71.3231 261.982 71.9095 263.183 72.5083L262.737 73.4033C263.934 74.0003 265.124 74.6098 266.305 75.2316L266.771 74.3467C267.962 74.9736 269.145 75.613 270.319 76.2646L269.834 77.1389C271.003 77.788 272.164 78.4494 273.317 79.1227L273.821 78.2593C274.983 78.9384 276.137 79.6297 277.281 80.333L276.758 81.185C277.897 81.8851 279.027 82.5972 280.148 83.321L280.691 82.4809C281.822 83.2111 282.943 83.9533 284.055 84.7071L283.494 85.5349C284.601 86.2849 285.698 87.0466 286.786 87.8198L287.365 87.0048C288.462 87.7849 289.55 88.5766 290.627 89.3797L290.03 90.1815C291.101 90.9803 292.163 91.7904 293.214 92.6117L293.83 91.8236C294.891 92.6523 295.942 93.4922 296.982 94.3433L296.349 95.1173C297.383 95.9636 298.407 96.8209 299.421 97.6891L300.071 96.9297C301.093 97.8054 302.105 98.6921 303.105 99.5896L302.438 100.334C303.433 101.226 304.417 102.13 305.39 103.043L306.074 102.314C307.055 103.236 308.025 104.167 308.983 105.11L308.282 105.823C309.235 106.76 310.177 107.707 311.107 108.665L311.824 107.968C312.762 108.934 313.687 109.909 314.601 110.894L313.867 111.574C314.776 112.554 315.673 113.544 316.558 114.545L317.307 113.882C318.198 114.889 319.077 115.906 319.944 116.933L319.18 117.578C320.042 118.599 320.892 119.63 321.729 120.671L322.508 120.044C323.351 121.092 324.182 122.149 324.999 123.215L324.206 123.823C325.019 124.884 325.819 125.954 326.606 127.033L327.414 126.444C328.207 127.53 328.986 128.625 329.752 129.729L328.93 130.299C329.692 131.397 330.441 132.504 331.176 133.619L332.011 133.069C332.75 134.191 333.476 135.322 334.189 136.462L333.341 136.992C334.049 138.125 334.744 139.266 335.424 140.416L336.285 139.906C336.969 141.063 337.64 142.227 338.297 143.4L337.424 143.889C338.077 145.054 338.715 146.228 339.339 147.409L340.223 146.942C340.851 148.13 341.464 149.326 342.063 150.53L341.167 150.975C341.762 152.171 342.342 153.374 342.908 154.585L343.814 154.162C344.382 155.379 344.936 156.604 345.475 157.836L344.559 158.237C345.094 159.46 345.614 160.69 346.119 161.927L347.045 161.549C347.553 162.793 348.045 164.044 348.523 165.302L347.588 165.656C348.061 166.904 348.52 168.158 348.963 169.419L349.906 169.087C350.351 170.355 350.781 171.629 351.196 172.91L350.244 173.217C350.655 174.486 351.05 175.761 351.429 177.042L352.388 176.759C352.769 178.047 353.135 179.342 353.485 180.642L352.519 180.902C352.865 182.189 353.196 183.481 353.51 184.78L354.482 184.544C354.799 185.851 355.099 187.163 355.384 188.48L354.406 188.691C354.687 189.993 354.952 191.3 355.201 192.612L356.183 192.426C356.434 193.746 356.668 195.072 356.885 196.403L355.899 196.564C356.114 197.877 356.312 199.196 356.495 200.519L357.486 200.382C357.669 201.713 357.837 203.049 357.987 204.389L356.994 204.501C357.142 205.823 357.275 207.15 357.391 208.482L358.387 208.395C358.504 209.732 358.604 211.074 358.688 212.42L357.69 212.482C357.772 213.81 357.838 215.143 357.888 216.48L358.888 216.443Z" stroke="black" stroke-width="2" stroke-dasharray="4 4"/>
</svg>
