<svg width="14" height="22" viewBox="0 0 14 22" fill="none" xmlns="http://www.w3.org/2000/svg">
<path d="M3.5002 6.87499C3.5002 5.3582 4.75582 4.12499 6.3002 4.12499H7.7002C9.24457 4.12499 10.5002 5.3582 10.5002 6.87499V7.02968C10.5002 7.9664 10.0146 8.83867 9.21395 9.3414L7.3677 10.5059C6.82561 10.8482 6.37971 11.3187 6.07089 11.8742C5.76207 12.4298 5.60023 13.0526 5.6002 13.6855V13.7457C5.6002 14.5062 6.22582 15.1207 7.0002 15.1207C7.77457 15.1207 8.4002 14.5062 8.4002 13.7457V13.6855C8.4002 13.3332 8.58395 13.0066 8.88145 12.8176L10.7277 11.6531C12.3289 10.6391 13.3002 8.89882 13.3002 7.02538V6.8707C13.3002 3.83281 10.7933 1.3707 7.7002 1.3707H6.3002C3.20707 1.37499 0.700195 3.8371 0.700195 6.87499C0.700195 7.63554 1.32582 8.24999 2.1002 8.24999C2.87457 8.24999 3.5002 7.63554 3.5002 6.87499ZM7.0002 20.625C7.46432 20.625 7.90944 20.4439 8.23763 20.1216C8.56582 19.7993 8.7502 19.3621 8.7502 18.9062C8.7502 18.4504 8.56582 18.0132 8.23763 17.6909C7.90944 17.3686 7.46432 17.1875 7.0002 17.1875C6.53607 17.1875 6.09095 17.3686 5.76276 17.6909C5.43457 18.0132 5.2502 18.4504 5.2502 18.9062C5.2502 19.3621 5.43457 19.7993 5.76276 20.1216C6.09095 20.4439 6.53607 20.625 7.0002 20.625Z" fill="black"/>
</svg>
