<?xml version="1.0" encoding="UTF-8"?>
<svg version="1.1" xmlns="http://www.w3.org/2000/svg" width="250" height="250">
<path d="M0 0 C82.5 0 165 0 250 0 C250 82.5 250 165 250 250 C167.5 250 85 250 0 250 C0 167.5 0 85 0 0 Z " fill="#FF7800" transform="translate(0,0)"/>
<path d="M0 0 C2.9375 1.5 2.9375 1.5 5 3 C5.33 2.34 5.66 1.68 6 1 C8.64 1 11.28 1 14 1 C14.14889585 6.56832301 14.2574727 12.13547468 14.32958984 17.70532227 C14.35966736 19.59778033 14.40054133 21.49010009 14.45263672 23.38208008 C14.52585497 26.11053657 14.55954542 28.83714283 14.5859375 31.56640625 C14.61690521 32.40522842 14.64787292 33.2440506 14.67977905 34.10829163 C14.68295429 39.7155874 13.41634471 42.60303133 9.58486938 46.70274353 C6.05837431 49.5892707 2.04528546 49.23060294 -2.3125 49.3125 C-3.60800781 49.34988281 -4.90351563 49.38726562 -6.23828125 49.42578125 C-10.57386085 48.93504586 -12.67685865 47.77852942 -16 45 C-16.875 42.25 -16.875 42.25 -17 40 C-15.56589632 39.75045995 -14.12739928 39.52607358 -12.6875 39.3125 C-11.88699219 39.18488281 -11.08648437 39.05726563 -10.26171875 38.92578125 C-8 39 -8 39 -6.39453125 40.4609375 C-5.70423828 41.22277344 -5.70423828 41.22277344 -5 42 C-0.92205575 42.42478586 0.53076119 42.31282587 4 40 C4.25015873 36.41642759 4.25015873 36.41642759 4 33 C3.505 33.495 3.01 33.99 2.5 34.5 C-0.96622084 36.5797325 -4.10774461 36.68245711 -8 36 C-12.37083756 33.69087827 -16.04072066 31.07908544 -17.55859375 26.20703125 C-18.98527581 19.07362097 -18.66016317 12.31062616 -15 6 C-10.32524602 0.62403292 -7.09062672 -0.48900874 0 0 Z " fill="#FFFAF6" transform="translate(170,193)"/>
<path d="M0 0 C4.42108934 2.54654746 7.0524013 5.68101015 8.75 10.5 C9.72362668 16.91042699 9.50975878 23.13951945 6.13671875 28.80859375 C3.00688055 32.62611471 -0.6353658 35.03278014 -5.5234375 35.90625 C-10.67868012 36.11738622 -14.73647219 35.10395835 -19.25 32.5 C-24.24761837 27.64480081 -25.43422108 24.13655231 -25.5625 17.25 C-25.59988281 15.94546875 -25.63726562 14.6409375 -25.67578125 13.296875 C-25.0596181 7.80228248 -22.71952844 4.82615981 -18.6875 1.1875 C-13.08463837 -2.69140421 -6.16629077 -2.65606832 0 0 Z " fill="#FFFAF6" transform="translate(39.25,194.5)"/>
<path d="M0 0 C2.91366558 1.53629639 3.63789405 2.30059107 5.5625 5.1875 C5.78955078 8.19018555 5.78955078 8.19018555 5.7578125 11.82421875 C5.75136719 13.12294922 5.74492188 14.42167969 5.73828125 15.75976562 C5.7215706 17.13151307 5.70464071 18.50325786 5.6875 19.875 C5.67746674 21.25845718 5.66834149 22.64192127 5.66015625 24.02539062 C5.63654967 27.41293452 5.60362037 30.80013072 5.5625 34.1875 C-0.4921875 34.3828125 -0.4921875 34.3828125 -2.4375 34.1875 C-3.0975 33.5275 -3.7575 32.8675 -4.4375 32.1875 C-4.98535156 32.50847656 -5.53320312 32.82945312 -6.09765625 33.16015625 C-10.37017335 35.03606943 -14.87559238 34.87009655 -19.4375 34.1875 C-22.33433868 31.9859026 -23.83047231 30.40155538 -25.4375 27.1875 C-25.97610178 23.2377536 -25.63448463 21.51580771 -23.5625 18.0625 C-19.63439638 13.82193359 -13.92374732 11.57073995 -8.234375 10.9453125 C-6.3125 10.9375 -6.3125 10.9375 -3.4375 11.1875 C-4.0975 9.5375 -4.7575 7.8875 -5.4375 6.1875 C-7.3246875 6.125625 -7.3246875 6.125625 -9.25 6.0625 C-9.95769531 6.03929687 -10.66539063 6.01609375 -11.39453125 5.9921875 C-13.75109719 6.05495538 -13.75109719 6.05495538 -16.4375 8.1875 C-19.07184254 7.86623872 -21.06460097 7.37394952 -23.4375 6.1875 C-22.09209949 2.15129847 -20.01804491 1.33582694 -16.4375 -0.8125 C-10.76336201 -2.70387933 -5.4299906 -2.5960904 0 0 Z " fill="#FFFAF5" transform="translate(101.4375,194.8125)"/>
<path d="M0 0 C4.23301121 2.82200747 7.17159664 5.95228992 8.8125 10.875 C8.8125 13.515 8.8125 16.155 8.8125 18.875 C1.2225 18.875 -6.3675 18.875 -14.1875 18.875 C-12.3303089 26.58711684 -12.3303089 26.58711684 -9.1875 27.875 C-4.84306172 28.29574523 -4.84306172 28.29574523 -1.125 26.3125 C0.8125 24.875 0.8125 24.875 3.4375 25.125 C5.8125 25.875 5.8125 25.875 7.8125 26.875 C7.6875 28.625 7.6875 28.625 6.8125 30.875 C1.10178367 35.50903528 -3.46845383 35.58682052 -10.6015625 35.390625 C-14.90835871 34.77134711 -17.12703141 33.76730632 -20.0234375 30.56640625 C-23.91660836 24.90955061 -23.79687343 18.52007216 -23.1875 11.875 C-21.92060396 6.17929093 -18.798633 3.14121921 -14.1875 -0.125 C-9.20670617 -1.78526461 -4.88476371 -1.72403425 0 0 Z " fill="#FFFAF6" transform="translate(213.1875,194.125)"/>
<path d="M0 0 C3.99396882 2.11002126 6.41941468 3.75646209 8 8 C8.22705078 11.02441406 8.22705078 11.02441406 8.1953125 14.515625 C8.18886719 15.76601562 8.18242187 17.01640625 8.17578125 18.3046875 C8.15902344 19.60664063 8.14226562 20.90859375 8.125 22.25 C8.11597656 23.56742188 8.10695312 24.88484375 8.09765625 26.2421875 C8.07408533 29.49497462 8.04118022 32.74739589 8 36 C4.7 36 1.4 36 -2 36 C-2.02505615 35.18732666 -2.0501123 34.37465332 -2.07592773 33.53735352 C-2.19149118 29.87889248 -2.31439584 26.22071472 -2.4375 22.5625 C-2.47681641 21.28310547 -2.51613281 20.00371094 -2.55664062 18.68554688 C-2.59853516 17.47060547 -2.64042969 16.25566406 -2.68359375 15.00390625 C-2.72025146 13.87799072 -2.75690918 12.7520752 -2.79467773 11.59204102 C-2.71218045 9.07146559 -2.71218045 9.07146559 -4 8 C-8.65065613 8.44793109 -8.65065613 8.44793109 -13 10 C-13.33 18.58 -13.66 27.16 -14 36 C-17.3 36 -20.6 36 -24 36 C-24 24.78 -24 13.56 -24 2 C-21.36 1.67 -18.72 1.34 -16 1 C-16 2.32 -16 3.64 -16 5 C-15.43152344 4.6390625 -14.86304687 4.278125 -14.27734375 3.90625 C-9.3948144 0.97184171 -5.85402531 -0.99407977 0 0 Z " fill="#FFF5EB" transform="translate(138,193)"/>
<path d="M0 0 C0 2.97 0 5.94 0 9 C-2.05078125 9.48828125 -4.1015625 9.9765625 -6.15234375 10.46484375 C-7.99969898 10.83887569 -7.99969898 10.83887569 -9 12 C-9.15764405 13.77869726 -9.25100677 15.56318476 -9.31640625 17.34765625 C-9.35830078 18.42724609 -9.40019531 19.50683594 -9.44335938 20.61914062 C-9.48267578 21.75544922 -9.52199219 22.89175781 -9.5625 24.0625 C-9.60568359 25.20267578 -9.64886719 26.34285156 -9.69335938 27.51757812 C-9.79982839 30.34492195 -9.90184207 33.17235738 -10 36 C-13.3 36 -16.6 36 -20 36 C-20 24.45 -20 12.9 -20 1 C-17.03 1 -14.06 1 -11 1 C-10.67 1.99 -10.34 2.98 -10 4 C-8.63875 3.01 -8.63875 3.01 -7.25 2 C-4 0 -4 0 0 0 Z " fill="#FFF6EE" transform="translate(74,193)"/>
<path d="M0 0 C3.96545673 0.63730555 5.10063397 1.4248675 7.5 4.5625 C9.22194097 8.00638193 8.87796284 11.78938824 8.5 15.5625 C6.41891892 20.10304054 6.41891892 20.10304054 3.5 21.5625 C-0.50686356 22.00770706 -2.64702112 22.19676635 -5.9375 19.75 C-8.25341404 15.02553535 -8.25096692 10.72636529 -7.5 5.5625 C-5.47204838 1.4254787 -4.54975322 0.73121034 0 0 Z " fill="#FF7804" transform="translate(30.5,200.4375)"/>
<path d="M0 0 C3.70896912 0.69543171 4.70433403 1.60396657 7 4.5625 C7.49609375 7.65625 7.49609375 7.65625 7.4375 11.0625 C7.43621094 12.1865625 7.43492187 13.310625 7.43359375 14.46875 C6.96456239 17.81535214 6.44607471 19.25509166 4 21.5625 C2.0625 22.09375 2.0625 22.09375 0 22.0625 C-0.680625 22.0728125 -1.36125 22.083125 -2.0625 22.09375 C-4 21.5625 -4 21.5625 -5.72265625 19.90234375 C-8.15794987 15.44136248 -7.59817576 10.4890487 -7 5.5625 C-5.06539801 1.69329601 -4.23475935 0.79401738 0 0 Z " fill="#FF7704" transform="translate(168,199.4375)"/>
<path d="M0 0 C0 2.97 0 5.94 0 9 C-6.6684492 12.72192513 -6.6684492 12.72192513 -11 12 C-13 9 -13 9 -13.125 6.5625 C-11.58111283 3.04586812 -9.48203466 2.30197893 -6.10546875 0.69921875 C-4 0 -4 0 0 0 Z " fill="#FF7A0B" transform="translate(98,211)"/>
<path d="M0 0 C2.63995097 0.07186799 3.79303107 0.14408192 6.0625 1.5625 C7.0625 3.3125 7.0625 3.3125 7.0625 7.3125 C2.4425 7.3125 -2.1775 7.3125 -6.9375 7.3125 C-5.56330645 0.44153226 -5.56330645 0.44153226 0 0 Z " fill="#FF7806" transform="translate(205.9375,199.6875)"/>
<path d="M0 0 C1.32 0.33 2.64 0.66 4 1 C5.25 3.5625 5.25 3.5625 6 6 C6.598125 5.01 7.19625 4.02 7.8125 3 C8.8953125 1.515 8.8953125 1.515 10 0 C10.99 0 11.98 0 13 0 C13 3.96 13 7.92 13 12 C12.34 12 11.68 12 11 12 C10.67 9.36 10.34 6.72 10 4 C9.01 6.31 8.02 8.62 7 11 C6.34 11 5.68 11 5 11 C4.34 9.35 3.68 7.7 3 6 C2.67 7.65 2.34 9.3 2 11 C1.34 11 0.68 11 0 11 C0 7.37 0 3.74 0 0 Z " fill="#FFF2E5" transform="translate(228,181)"/>
<path d="M0 0 C0.99 0 1.98 0 3 0 C3 3.96 3 7.92 3 12 C2.34 12 1.68 12 1 12 C0.67 9.36 0.34 6.72 0 4 C-0.66 4.99 -1.32 5.98 -2 7 C-1.125 1.125 -1.125 1.125 0 0 Z " fill="#FFE8D3" transform="translate(238,181)"/>
<path d="M0 0 C0.66 0 1.32 0 2 0 C1.67 0.99 1.34 1.98 1 3 C0.85222064 4.69867188 0.75252934 6.40177489 0.68359375 8.10546875 C0.62075195 9.57983398 0.62075195 9.57983398 0.55664062 11.08398438 C0.51732422 12.10814453 0.47800781 13.13230469 0.4375 14.1875 C0.39431641 15.22326172 0.35113281 16.25902344 0.30664062 17.32617188 C0.20055634 19.8839819 0.09849854 22.44188845 0 25 C-0.33 25 -0.66 25 -1 25 C-1.02886984 21.02084841 -1.04675406 17.04172347 -1.0625 13.0625 C-1.07087891 11.92619141 -1.07925781 10.78988281 -1.08789062 9.61914062 C-1.09111328 8.53955078 -1.09433594 7.45996094 -1.09765625 6.34765625 C-1.10289307 5.34742432 -1.10812988 4.34719238 -1.11352539 3.31665039 C-1 1 -1 1 0 0 Z " fill="#FF6600" transform="translate(65,204)"/>
</svg>
