<?xml version="1.0" encoding="UTF-8"?>
<svg version="1.1" xmlns="http://www.w3.org/2000/svg" width="1252" height="687">
<path d="M0 0 C0.84046875 0.44214844 1.6809375 0.88429688 2.546875 1.33984375 C19.94328375 11.09155735 31.42849743 26.80697094 36.8125 45.8125 C37.24205422 47.53359981 37.63204712 49.26468675 38 51 C38.18296631 51.71551025 38.36593262 52.43102051 38.55444336 53.16821289 C40.09561563 59.68914962 39.95165781 65.21844008 38.9375 71.8125 C38.79755615 72.7730127 38.6576123 73.73352539 38.51342773 74.72314453 C37.3068147 82.34554829 35.31868137 89.00669035 32 96 C31.55720703 97.07507813 31.55720703 97.07507813 31.10546875 98.171875 C26.09622075 109.60851428 15.66587131 118.62226219 6.94615173 127.2943573 C5.74589065 128.49549239 4.54606993 129.69706766 3.34664732 130.89904004 C0.07639319 134.17373343 -3.20000836 137.44221305 -6.47751462 140.70964587 C-10.02090848 144.24435779 -13.55847421 147.78489445 -17.09677124 151.32470703 C-23.21898049 157.44796214 -29.34482462 163.56756096 -35.47319221 169.68465233 C-44.33364613 178.52881361 -53.18853569 187.37852895 -62.0421012 196.22958533 C-76.40851385 210.59162677 -90.77938195 224.94920138 -105.15307617 239.30395508 C-119.11115595 253.24366118 -133.06712195 267.18547796 -147.02026367 281.13012695 C-147.88114088 281.99047872 -148.74201809 282.85083048 -149.62898249 283.73725351 C-153.94797782 288.05363866 -158.26693177 292.37006521 -162.58586514 296.68651235 C-198.38416347 332.46409607 -234.18970324 368.23442597 -270 404 C-268.58146634 404.00358253 -268.58146634 404.00358253 -267.13427544 404.00723743 C-244.07984595 404.06613949 -221.02552007 404.14208819 -197.97120476 404.23571491 C-186.82212141 404.28060183 -175.67306949 404.32003279 -164.52392578 404.34643555 C-154.8016802 404.36947325 -145.0795347 404.40293546 -135.35736859 404.44870156 C-130.21378499 404.47255609 -125.07030002 404.49133566 -119.92666245 404.49761391 C-115.07571836 404.50370006 -110.22502642 404.52382619 -105.37417603 404.55427551 C-103.60303632 404.5629995 -101.83186358 404.56679016 -100.06070328 404.56500816 C-80.76502451 404.55173556 -63.53091239 407.68495872 -48 420 C-47.16597656 420.65742188 -46.33195312 421.31484375 -45.47265625 421.9921875 C-28.57481891 436.20824172 -22.29879051 455.01974763 -19.234375 476.26171875 C-19.15703125 477.16535156 -19.0796875 478.06898438 -19 479 C-19.33 479.33 -19.66 479.66 -20 480 C-20.32672842 482.32868255 -20.6107421 484.66340383 -20.875 487 C-21.63162254 492.99045536 -22.59106834 498.44658503 -25 504 C-25.46148438 505.06734375 -25.92296875 506.1346875 -26.3984375 507.234375 C-34.13249854 523.86442173 -47.11615693 537.88301292 -64.34765625 544.96484375 C-66.55036342 545.72426766 -68.75247365 546.38703827 -71 547 C-72.00160156 547.29003906 -72.00160156 547.29003906 -73.0234375 547.5859375 C-77.33241453 548.76111305 -81.57207622 549.36819776 -86.01953125 549.75390625 C-88.20747595 549.9598085 -88.20747595 549.9598085 -91 551 C-92.975636 551.0940744 -94.95435495 551.12734554 -96.93222904 551.12863445 C-98.8025217 551.13347112 -98.8025217 551.13347112 -100.71059805 551.1384055 C-102.10191105 551.13693422 -103.49322395 551.13536649 -104.88453674 551.13371277 C-106.35667811 551.13557999 -107.82881897 551.13788034 -109.30095905 551.14057809 C-113.35664393 551.14671385 -117.41230825 551.14656041 -121.46799672 551.14538372 C-125.83832248 551.14518015 -130.20864156 551.15069438 -134.57896423 551.15544128 C-143.14649911 551.16375895 -151.7140271 551.16649666 -160.28156567 551.16705366 C-167.2465131 551.16752845 -174.21145825 551.16958134 -181.17640495 551.17275429 C-200.9188602 551.18156518 -220.66131001 551.18617318 -240.40376724 551.18542381 C-242.00129869 551.18536388 -242.00129869 551.18536388 -243.63110352 551.18530273 C-244.697424 551.18526185 -245.76374447 551.18522097 -246.8623777 551.18517885 C-264.13399939 551.18477262 -281.40559925 551.1943352 -298.67721463 551.2084411 C-316.40725401 551.22280717 -334.13728276 551.22971111 -351.86732811 551.22884732 C-361.82297972 551.22851536 -371.77860847 551.2312622 -381.73425484 551.24202538 C-390.21361706 551.25113358 -398.69294607 551.25330312 -407.17231108 551.24651595 C-411.49753815 551.2432519 -415.82270151 551.24318983 -420.14792252 551.2518692 C-424.11135414 551.25974058 -428.07467161 551.25829624 -432.03810047 551.24958507 C-433.46819323 551.24805145 -434.89829452 551.24986104 -436.32837719 551.25544515 C-443.39740828 551.28120861 -450.06601449 551.11091403 -456.95956367 549.4532221 C-459.2740168 548.88471756 -459.2740168 548.88471756 -462.8125 548.75 C-468.04647837 548.20188317 -472.58272213 545.57464396 -477.2421875 543.27734375 C-479.79592046 541.85990655 -479.79592046 541.85990655 -482 542 C-482 541.34 -482 540.68 -482 540 C-483.07507813 539.62681641 -483.07507813 539.62681641 -484.171875 539.24609375 C-493.7571074 535.02276621 -500.95224176 526.27276519 -507 518 C-507.84884766 516.84951172 -507.84884766 516.84951172 -508.71484375 515.67578125 C-518.10367113 501.60448525 -519.15175371 484.66723951 -519.14044189 468.28881836 C-519.14302848 466.7877641 -519.14604245 465.28671052 -519.1494453 463.78565788 C-519.1574842 459.67304458 -519.15930313 455.56044876 -519.16004276 451.44782853 C-519.16189877 447.00726243 -519.16944888 442.5667053 -519.17617798 438.12614441 C-519.18974005 428.42130913 -519.1957828 418.716478 -519.20018864 409.01163483 C-519.20295485 402.9469443 -519.20719291 396.88225537 -519.21169281 390.81756592 C-519.22388306 374.01226909 -519.23418262 357.20697352 -519.2375679 340.40167236 C-519.23778747 339.32680022 -519.23800703 338.25192807 -519.23823325 337.14448404 C-519.23845153 336.06710018 -519.23866981 334.98971631 -519.2388947 333.87968445 C-519.23933816 331.6966451 -519.23978472 329.51360575 -519.24023438 327.33056641 C-519.2404558 326.24771299 -519.24067723 325.16485958 -519.24090537 324.04919243 C-519.24485115 306.51357131 -519.26229955 288.9779918 -519.2855939 271.44238675 C-519.30933996 253.4206168 -519.32177125 235.39886771 -519.32293582 217.37708187 C-519.32385079 207.26592173 -519.32955806 197.15481581 -519.34775543 187.04367065 C-519.36320045 178.43174141 -519.36825103 169.81988314 -519.36001733 161.20794266 C-519.35612627 156.81912391 -519.35696435 152.4304479 -519.37107468 148.04164696 C-519.38390693 144.01329217 -519.38253538 139.985186 -519.37048396 135.9568311 C-519.36854296 134.50995557 -519.37153028 133.06306185 -519.38032833 131.61621177 C-519.51115762 108.62024279 -513.54600823 88.49925881 -497.578125 71.41796875 C-485.21418951 59.82209592 -469.02268199 52.06391762 -452 51 C-451.21625 50.94714844 -450.4325 50.89429688 -449.625 50.83984375 C-429.79802448 50.16124191 -411.77906537 57.45415785 -396.8125 70.25 C-382.08989805 84.08738222 -374.28827626 102.45658068 -373.64175761 122.54605186 C-373.56993556 126.59278123 -373.56352325 130.63804404 -373.56762695 134.68530273 C-373.55858828 136.51015883 -373.54825598 138.33500891 -373.53674316 140.15985107 C-373.50939403 145.06584764 -373.49991899 149.97172832 -373.49388909 154.87779117 C-373.48444735 160.02274503 -373.4582397 165.16761428 -373.43388367 170.31251526 C-373.39037351 180.03368178 -373.36173175 189.75483173 -373.33856028 199.4760657 C-373.31142518 210.55243093 -373.26751909 221.62871037 -373.22227156 232.70501411 C-373.12964727 255.46996276 -373.05786529 278.23493831 -373 301 C-372.07800546 300.07515756 -372.07800546 300.07515756 -371.13738477 299.13163143 C-334.6844866 262.56677479 -298.21849145 226.01502425 -261.73550942 189.48018277 C-257.35222344 185.09064347 -252.96904671 180.7009951 -248.5859375 176.3112793 C-247.71335972 175.43738996 -246.84078194 174.56350063 -245.9417624 173.6631298 C-231.82456099 159.52418848 -217.71622202 145.37643572 -203.6111546 131.22539062 C-189.13135846 116.69879058 -174.64204162 102.18173789 -160.14389479 87.67345232 C-151.20242271 78.72512929 -142.26840548 69.76949562 -133.34386636 60.80428403 C-127.2182491 54.65217991 -121.08338469 48.50939719 -114.94127046 42.37376357 C-111.40107147 38.83675815 -107.86499436 35.29588235 -104.33987236 31.74384499 C-101.10551049 28.48497019 -97.85956668 25.23809554 -94.60444994 21.99995547 C-93.43563737 20.83323794 -92.27095287 19.66236514 -91.11112826 18.48671234 C-66.93223737 -6.00254383 -32.16598686 -17.31635182 0 0 Z " fill="#FE7800" transform="translate(1178,34)"/>
<path d="M0 0 C1.49096811 -0.00187043 2.98193574 -0.00417206 4.4729026 -0.00686532 C8.55291522 -0.01296104 12.63290728 -0.01285236 16.71292341 -0.01167095 C21.12003033 -0.01146637 25.52713075 -0.01699111 29.93423462 -0.02172852 C38.56244802 -0.03002352 47.19065459 -0.03278284 55.81887164 -0.03334089 C62.83512859 -0.03381662 69.8513833 -0.03587421 76.86763954 -0.03904152 C96.77573335 -0.04784513 116.68382177 -0.05246138 136.59191754 -0.05171105 C137.66444318 -0.05167109 138.73696882 -0.05163113 139.84199524 -0.05158997 C140.91583593 -0.05154909 141.98967661 -0.0515082 143.09605793 -0.05146609 C160.49392637 -0.05105975 177.89177315 -0.06062692 195.28963532 -0.07472833 C213.1690456 -0.08910528 231.04844531 -0.09599778 248.92786151 -0.09513456 C258.95956354 -0.09480303 268.99124287 -0.09753057 279.02293968 -0.10831261 C287.56499023 -0.11743498 296.10700779 -0.11957862 304.64906111 -0.11280318 C309.00317907 -0.10954668 313.35723379 -0.10944973 317.71134567 -0.11815643 C321.70558717 -0.12606103 325.69971569 -0.12454994 329.69395456 -0.1158723 C331.13066857 -0.11434598 332.56739118 -0.11612033 334.00409504 -0.12173238 C358.94219615 -0.21261012 378.21522702 5.39947835 396.26899719 23.13371277 C397.09850891 23.94388855 397.09850891 23.94388855 397.94477844 24.77043152 C409.07896446 36.68491089 415.3774536 53.48804663 415.40321827 69.65258598 C415.40767611 70.95397164 415.41213396 72.2553573 415.41672689 73.59617889 C415.4166376 75.03348471 415.41644777 76.47079052 415.41616821 77.90809631 C415.41946951 79.44042304 415.42319563 80.9727489 415.42730969 82.50507367 C415.43730782 86.71341611 415.44104296 90.92174428 415.443699 95.13009691 C415.44760861 99.67022333 415.45718655 104.21033853 415.46591187 108.75045776 C415.48565874 119.71438702 415.49574067 130.67831718 415.50463966 141.64225978 C415.50902586 146.8094566 415.51439184 151.9766524 415.51962852 157.14384842 C415.53663976 174.32822647 415.55113267 191.51260389 415.55837727 208.69698906 C415.56028706 213.15473812 415.56220741 217.61248717 415.56416321 222.07023621 C415.56464695 223.17814554 415.56513069 224.28605487 415.56562909 225.42753722 C415.57392465 243.36422288 415.59925406 261.30084175 415.63174389 279.23749827 C415.66485158 297.66600904 415.68282942 316.09448592 415.68602151 334.52302659 C415.68818327 344.86450793 415.69688291 355.20589191 415.72248268 365.54734421 C415.74424047 374.35696256 415.75221521 383.16645987 415.7425159 391.97610204 C415.73798576 396.46621137 415.73978201 400.95607125 415.75927734 405.44614601 C415.77701469 409.56716033 415.77582667 413.68774516 415.76038005 417.80876471 C415.75801988 419.28935005 415.76224366 420.76996597 415.7742087 422.25050484 C415.87364898 435.38228951 413.88713088 448.61542132 407.70649719 460.38371277 C407.36989075 461.03791199 407.0332843 461.69211121 406.68647766 462.36613464 C397.53390422 479.24672445 381.1864151 491.03092474 363.01899719 496.44621277 C358.06101109 497.75638234 353.38324652 498.79276281 348.26899719 499.13371277 C347.22679016 499.21105652 347.22679016 499.21105652 346.16352844 499.28996277 C327.50549387 500.04003451 310.69485013 493.72130846 296.26899719 482.13371277 C295.42337219 481.48918152 294.57774719 480.84465027 293.70649719 480.18058777 C281.42558028 469.86776651 273.80141656 453.78405809 271.26899719 438.13371277 C271.16788713 435.53283133 271.11430791 432.95807286 271.11077881 430.35726929 C271.10584083 429.58120577 271.10090285 428.80514225 271.09581524 428.00556165 C271.08047636 425.40920202 271.07208942 422.81286705 271.06367493 420.21647644 C271.05409357 418.35369145 271.04408333 416.49090862 271.03367615 414.62812805 C271.006649 409.57281408 270.98562756 404.51749079 270.96567416 399.46214461 C270.94380113 394.17835911 270.91641887 388.89460224 270.88961792 383.61083984 C270.83970888 373.60601127 270.7947634 363.60116678 270.75159556 353.5963071 C270.70220791 342.20582063 270.64729544 330.8153629 270.59191597 319.42490423 C270.47812336 295.99453389 270.37127838 272.56413598 270.26899719 249.13371277 C269.66491402 249.73893511 269.06083084 250.34415744 268.43844211 250.96771985 C232.60607436 286.86727559 196.76583772 322.75895908 160.91541796 358.64048799 C156.60727649 362.95238141 152.29920056 367.26434032 147.99116516 371.57633972 C147.13354045 372.43475136 146.27591574 373.293163 145.39230241 374.17758711 C131.52039684 388.06253347 117.65380351 401.95277335 103.78917883 415.84498952 C89.55427324 430.10798621 75.31364429 444.36524976 61.06772721 458.61724824 C52.28306058 467.40602361 43.50284602 476.19919815 34.72834076 484.9981186 C28.70442214 491.03794016 22.67493451 497.07216551 16.6411166 503.10209749 C13.16424784 506.57705181 9.6898115 510.05434636 6.22199249 513.53833389 C3.03885915 516.73619877 -0.15130366 519.92688105 -3.34689187 523.11229851 C-4.49376521 524.25791712 -5.63817004 525.40601428 -6.77964868 526.55700818 C-12.62493169 532.44812013 -18.59387782 538.02176802 -25.10160637 543.18098736 C-25.66462747 543.62926875 -26.22764857 544.07755015 -26.80773092 544.53941583 C-41.09652639 555.59078998 -59.00772612 559.13042056 -76.73100281 558.13371277 C-96.85402163 555.52060092 -114.77636627 546.54814754 -127.35600281 530.44621277 C-140.10745274 512.75659376 -144.34812053 493.35444492 -141.41752625 471.83146667 C-137.87592892 452.49760609 -126.23820331 439.32819188 -112.80377197 425.9659729 C-111.59286227 424.75418984 -110.38239267 423.54196687 -109.17232269 422.32934529 C-105.86335167 419.01592235 -102.54821114 415.70873415 -99.23199046 412.40256917 C-95.65039721 408.82963931 -92.07461293 405.25090395 -88.49810791 401.67288208 C-82.30656464 395.48029178 -76.11137964 389.29136433 -69.91368294 383.10493279 C-60.9529377 374.1604643 -51.99774169 365.21045678 -43.04387616 356.25910199 C-28.51551766 341.73511718 -13.9827015 327.21560128 0.55293274 312.69889832 C14.67018899 298.6000093 28.78533628 284.49901439 42.8976593 270.39518738 C43.76802295 269.52534918 44.63838659 268.65551098 45.53512489 267.75931405 C49.90161368 263.3954354 54.26806111 259.03151537 58.63448799 254.66757476 C94.83958158 218.48320351 131.05191622 182.30608552 167.26899719 146.13371277 C165.85046353 146.13013024 165.85046353 146.13013024 164.40327263 146.12647533 C141.34884314 146.06757328 118.29451726 145.99162458 95.24020195 145.89799786 C84.0911186 145.85311094 72.94206669 145.81367997 61.79292297 145.78727722 C52.07067739 145.76423952 42.34853189 145.73077731 32.62636578 145.68501121 C27.48278218 145.66115668 22.33929722 145.64237711 17.19565964 145.63609886 C12.34471556 145.63001271 7.49402361 145.60988658 2.64317322 145.57943726 C0.87203351 145.57071326 -0.89913923 145.56692261 -2.67029953 145.56870461 C-23.41545762 145.58297424 -44.24546337 141.76972387 -59.60600281 126.50871277 C-60.65098118 125.38678824 -61.69300079 124.26209491 -62.73100281 123.13371277 C-63.57662781 122.34996277 -64.42225281 121.56621277 -65.29350281 120.75871277 C-78.7781144 106.23682337 -83.64322416 87.49306338 -83.07475281 68.13761902 C-82.19891928 51.77517199 -75.64771625 36.35285407 -64.73100281 24.13371277 C-64.1264325 23.44793152 -63.52186218 22.76215027 -62.89897156 22.05558777 C-57.83133943 16.64736122 -52.12678006 12.82758117 -45.73100281 9.13371277 C-45.07487 8.74312683 -44.41873718 8.35254089 -43.74272156 7.95011902 C-30.16813397 0.4797357 -15.07908568 -0.01799016 0 0 Z " fill="#000000" transform="translate(181.7310028076172,87.86628723144531)"/>
</svg>
